<svg version="1.1" id="Layer_1" xmlns="http://www.w3.org/2000/svg" xmlns:xlink="http://www.w3.org/1999/xlink" x="0px" y="0px"
	 width="100%" viewBox="0 0 541 549" enable-background="new 0 0 541 549" xml:space="preserve">
<path fill="#0215FF" opacity="1.000000" stroke="none" 
	d="
M542.000000,54.000000 
	C542.000000,54.750000 542.000000,55.500000 541.721558,56.935883 
	C541.294678,59.097858 541.016479,60.573933 541.016296,62.050041 
	C540.997131,204.295319 540.995605,346.540619 541.041260,488.785889 
	C541.041870,490.524017 541.666565,492.261963 542.000000,494.000000 
	C542.000000,495.389008 542.000000,496.777985 541.644897,498.720154 
	C536.022400,523.651611 521.916016,540.091858 497.848206,547.521423 
	C494.618256,548.518494 491.285278,549.182007 488.000000,550.000000 
	C487.250000,550.000000 486.500000,550.000000 485.089050,549.691589 
	C482.112457,549.256226 479.796844,549.018677 477.481171,549.018188 
	C338.524841,548.990479 199.568497,548.978943 60.612156,549.014832 
	C59.074684,549.015259 57.537380,549.657410 56.000000,550.000000 
	C55.555664,550.000000 55.111328,550.000000 54.172668,549.653931 
	C22.830635,543.177979 3.991649,522.388855 1.892611,491.597351 
	C1.992606,348.068573 1.998431,204.999634 1.996220,61.930702 
	C1.996205,60.936733 1.885536,59.942764 1.883932,58.525200 
	C3.633140,27.744785 27.696388,3.986890 59.407093,1.909305 
	C198.937317,1.998217 338.006958,1.998579 477.076630,1.989587 
	C479.735474,1.989415 482.394348,1.878818 485.469269,1.879284 
	C510.224609,3.452178 531.648499,20.293236 539.037231,43.761684 
	C540.103882,47.149570 541.016235,50.586029 542.000000,54.000000 
M56.369385,136.974411 
	C56.369385,136.974411 56.002529,137.250885 55.325378,137.107010 
	C54.877361,137.203323 54.429348,137.299622 53.156433,137.302841 
	C52.658234,137.517303 52.160038,137.731766 51.524467,137.736801 
	C51.304489,137.730377 51.204185,137.836914 50.266788,138.029404 
	C49.208447,138.441452 48.150101,138.853516 47.039669,139.341858 
	C46.811195,139.295425 46.641609,139.380936 46.449585,139.559906 
	C46.449585,139.559906 46.390919,139.491669 46.604694,138.709961 
	C36.101070,139.621643 25.597443,140.533325 15.093818,141.445023 
	C15.478372,142.502975 15.962194,142.903397 16.481882,142.957169 
	C22.019753,143.530106 27.589579,143.859406 33.098988,144.626541 
	C40.863117,145.707626 48.546490,147.804871 56.330521,148.216156 
	C72.655983,149.078781 85.935616,157.792969 91.810188,172.657181 
	C93.018875,175.715485 94.004723,178.861862 95.021309,182.756760 
	C95.244156,183.490906 95.466995,184.225067 95.713226,185.679153 
	C96.091446,187.302322 96.469658,188.925507 96.811684,191.239349 
	C96.922424,192.152267 97.033165,193.065170 97.015968,194.819183 
	C97.742867,201.864777 98.469765,208.910370 98.959824,216.840698 
	C99.067368,219.572067 99.174904,222.303436 99.181656,225.895218 
	C99.213966,227.914093 99.246277,229.932968 98.993050,232.857071 
	C98.967247,249.802628 98.903427,266.748230 98.925819,283.693726 
	C98.950615,302.459137 99.054245,321.224457 98.988686,340.880981 
	C98.655151,346.258301 98.321617,351.635620 97.763901,357.289551 
	C97.763901,357.289551 97.871689,357.628937 97.397141,358.166565 
	C97.312630,359.097076 97.228127,360.027557 96.972366,361.751068 
	C96.988373,362.290283 97.004379,362.829468 96.681801,363.814026 
	C96.526566,364.532471 96.371330,365.250916 96.006531,366.700439 
	C95.996742,367.459625 95.986954,368.218842 95.501808,369.382202 
	C95.173630,369.885498 94.645485,370.352814 94.547356,370.897552 
	C93.115036,378.849670 91.104790,386.554260 84.936348,392.925171 
	C83.685295,394.355957 82.434250,395.786713 81.026398,397.020752 
	C81.026398,397.020752 81.200920,397.202057 80.483437,397.169739 
	C79.338852,398.146088 78.194260,399.122437 77.024429,400.018280 
	C77.024429,400.018280 77.090164,400.071167 76.312820,400.017975 
	C73.965050,400.829651 71.648018,401.748383 69.263748,402.432953 
	C62.150524,404.475250 55.010921,406.425690 47.309696,408.714539 
	C46.886436,408.782135 46.463177,408.849701 45.449623,408.609039 
	C43.985893,408.784241 42.522163,408.959412 41.082428,409.048737 
	C41.082428,409.048737 41.116650,409.131042 40.628452,409.010406 
	C40.403046,409.233643 40.177635,409.456848 39.092228,410.000458 
	C30.583208,410.603180 22.074188,411.205902 13.565168,411.808594 
	C13.555468,412.268738 13.545767,412.728882 13.536066,413.189026 
	C16.144569,413.790131 18.724758,414.689789 21.366510,414.940369 
	C32.524544,415.998718 43.726540,416.633087 54.862671,417.870544 
	C64.204170,418.908600 72.908714,422.140656 80.908943,427.097687 
	C80.908943,427.097687 80.827850,427.153229 81.115929,427.752380 
	C88.927094,434.037781 91.910225,443.084869 94.973778,452.721313 
	C95.043442,453.156616 95.113106,453.591919 95.073883,454.672913 
	C95.294807,455.030487 95.515739,455.388031 95.684280,455.917511 
	C95.684280,455.917511 95.840569,456.006226 95.841934,456.774963 
	C96.230347,458.437744 96.618767,460.100494 96.936081,462.571564 
	C97.019814,463.374390 97.103546,464.177246 97.090767,465.818420 
	C97.690170,470.712219 98.310516,475.603577 98.883545,480.500458 
	C99.560867,486.288544 100.197334,492.081390 101.576187,497.735718 
	C105.118378,493.497467 103.768089,488.681824 103.191772,483.353546 
	C103.286697,482.962555 103.381615,482.571594 104.004532,481.799652 
	C103.902054,480.160217 103.799568,478.520752 103.695343,476.063080 
	C105.207016,463.033539 106.723900,450.005188 112.898712,437.509644 
	C112.937180,437.315552 112.975655,437.121429 113.447815,436.748596 
	C113.699554,436.549316 113.886101,436.301056 114.542191,435.937164 
	C114.633011,435.629059 114.723831,435.320923 115.075836,434.371796 
	C120.060333,427.290131 126.827110,422.726898 135.240448,420.967285 
	C145.450668,418.831909 155.747879,417.112396 166.716614,415.631195 
	C168.033798,415.760468 169.350937,416.002472 170.668152,416.002838 
	C236.831482,416.021271 302.994812,416.024841 369.158112,415.984558 
	C370.768005,415.983582 372.377533,415.468964 374.786102,415.091278 
	C376.744568,415.691559 378.667328,416.595825 380.668671,416.830627 
	C385.223511,417.364929 389.858917,417.287109 394.387421,417.958282 
	C415.816772,421.134247 429.753052,432.511719 433.148376,454.643982 
	C434.983093,466.603607 436.166382,478.662781 437.688293,490.671387 
	C437.891022,492.271301 438.357452,493.837799 438.701782,495.419800 
	C441.162292,482.937866 442.448761,470.735992 444.194641,458.600189 
	C447.613861,434.832336 457.756744,423.909332 480.952942,418.780548 
	C484.275513,418.045898 487.780304,418.178833 491.171478,417.702118 
	C498.173248,416.717896 505.134460,415.418671 512.152161,414.583160 
	C517.533020,413.942505 522.974792,413.814148 528.389465,413.457977 
	C513.382629,410.858978 498.472290,409.379700 483.674652,407.151886 
	C466.256927,404.529602 451.955994,396.895508 447.258423,378.474182 
	C444.327057,366.978882 441.797119,355.053925 441.532684,343.266876 
	C440.721710,307.120087 440.887115,270.945557 441.106384,234.784485 
	C441.188934,221.172073 441.797913,207.490250 443.362030,193.978424 
	C445.181488,178.261002 448.962219,163.032043 464.496643,153.798035 
	C464.753571,153.564896 465.010498,153.331757 465.679779,153.099915 
	C465.679779,153.099915 465.960388,152.797714 466.540436,152.779495 
	C467.011749,152.458984 467.483063,152.138474 468.853638,151.749908 
	C469.411743,151.529251 469.969879,151.308594 470.506409,150.983826 
	C470.506409,150.983826 470.341858,151.021622 471.309998,150.717133 
	C471.606384,150.554031 471.902802,150.390945 472.497375,150.413025 
	C472.771027,150.408539 472.946625,150.274948 473.763062,149.979660 
	C474.208740,149.775803 474.654419,149.571930 475.469788,149.552155 
	C475.793396,149.557404 476.000153,149.404526 476.048859,149.016556 
	C476.048859,149.016556 476.045166,149.103760 476.796967,149.129486 
	C478.180542,148.688171 479.564148,148.246872 481.899414,147.834457 
	C483.124084,147.550262 484.348785,147.266068 485.455078,146.950638 
	C485.455078,146.950638 485.485291,146.937805 486.388397,146.901215 
	C487.281891,146.777985 488.175415,146.654739 489.890350,146.702316 
	C491.901123,146.394196 493.911896,146.086090 496.692566,145.769730 
	C497.454224,145.781815 498.215881,145.793900 499.677887,145.939041 
	C500.444092,145.590836 501.210327,145.242630 502.847504,144.869293 
	C504.546021,144.612427 506.244507,144.355576 508.754425,144.193527 
	C514.026489,143.913391 519.298584,143.633255 524.570679,143.353119 
	C524.562561,142.680664 524.554443,142.008224 524.546326,141.335770 
	C519.027710,140.945282 513.509033,140.554794 507.132202,140.043243 
	C496.399567,138.235779 485.555511,136.917206 474.961456,134.501846 
	C460.462708,131.196259 450.874847,121.984070 447.106293,107.524185 
	C444.943939,99.227226 443.543762,90.703453 442.271240,82.211235 
	C441.150757,74.733704 440.684631,67.158119 439.887024,59.201435 
	C438.933807,60.018791 437.946228,60.443882 437.864502,61.001705 
	C437.149597,65.880417 436.528015,70.775635 436.011597,75.679939 
	C435.238831,83.019402 434.947632,90.429497 433.793610,97.705193 
	C430.157654,120.629089 419.371399,131.786346 396.830872,136.188812 
	C389.546722,137.611511 382.174500,138.583298 374.523468,139.578430 
	C374.244537,139.586746 374.052429,139.720215 373.455322,139.842316 
	C373.292633,139.792450 373.129913,139.742599 372.239807,139.321472 
	C370.920990,139.206390 369.602234,138.990860 368.283386,138.990601 
	C302.870331,138.977615 237.457260,138.979156 172.044205,139.005249 
	C170.056931,139.006042 168.069748,139.284195 165.297791,139.468948 
	C162.529144,139.315491 159.760483,139.162018 156.748291,138.618927 
	C156.325577,138.542648 155.902878,138.466370 155.461884,138.431793 
	C155.461884,138.431793 155.450684,138.384842 154.685760,138.150986 
	C151.770386,137.835526 148.855011,137.520065 145.322723,136.780869 
	C138.320221,134.403427 131.317734,132.026001 123.987045,129.920319 
	C123.987045,129.920319 124.325546,129.663361 123.962746,129.109604 
	C116.874245,124.287033 112.225800,117.686211 109.838997,108.665695 
	C108.652435,104.387047 107.465874,100.108406 106.073418,95.389557 
	C106.073418,95.389557 105.761864,95.016602 105.909454,94.522552 
	C105.916664,94.350861 105.923882,94.179169 106.342140,93.387039 
	C105.399437,86.542984 104.456734,79.698936 103.307968,72.286674 
	C103.292664,71.885651 103.277359,71.484627 103.653664,70.363129 
	C103.051117,64.117134 102.448570,57.871143 101.846016,51.625149 
	C101.103264,51.650478 100.360504,51.675808 99.617752,51.701138 
	C99.617752,56.829185 99.617752,61.957233 99.650391,67.606010 
	C99.497162,68.098915 99.343925,68.591812 98.656799,69.621033 
	C98.515373,72.808189 98.373947,75.995346 98.164543,80.030060 
	C97.833145,83.359833 97.501747,86.689606 96.992104,90.781937 
	C96.980141,91.563515 96.968170,92.345093 96.549911,93.588882 
	C96.426262,94.383240 96.302612,95.177605 96.010132,96.641914 
	C96.031273,97.100769 96.052414,97.559624 95.657173,98.643852 
	C92.831329,106.091980 90.005493,113.540108 87.002098,120.992737 
	C87.002098,120.992737 87.006287,121.170303 86.575867,121.278595 
	C86.293045,121.465218 86.185333,121.724632 86.063492,122.082291 
	C86.063492,122.082291 86.096169,122.270409 85.518791,122.556236 
	C83.338516,124.697815 81.158241,126.839394 78.437904,129.018692 
	C77.869370,129.443497 77.300842,129.868301 76.144989,130.310410 
	C71.857101,132.099014 67.569214,133.887634 62.850319,135.416428 
	C62.566692,135.560287 62.283066,135.704132 61.223774,135.828552 
	C60.475407,136.025436 59.727039,136.222321 58.157944,136.331970 
	C57.639950,136.510376 57.121952,136.688797 56.502670,137.043152 
	C56.502670,137.043152 56.777184,136.762939 56.369385,136.974411 
z"/>
<path fill="#FCFCFF" opacity="1.000000" stroke="none" 
	d="
M58.946533,1.819770 
	C27.696388,3.986890 3.633140,27.744785 1.675413,58.507572 
	C1.409498,58.913540 1.000000,59.000000 1.000000,59.000000 
	C1.000000,39.739868 1.000000,20.479736 1.000000,1.000000 
	C20.020330,1.000000 39.041508,1.000000 58.513386,1.204643 
	C58.964088,1.409287 58.946533,1.819770 58.946533,1.819770 
z"/>
<path fill="#FBFCFF" opacity="1.000000" stroke="none" 
	d="
M1.798082,492.057220 
	C3.991649,522.388855 22.830635,543.177979 53.839172,549.653931 
	C36.403252,550.000000 18.806503,550.000000 1.000000,550.000000 
	C1.000000,530.979614 1.000000,511.958466 1.196350,492.527191 
	C1.392701,492.117065 1.798082,492.057220 1.798082,492.057220 
z"/>
<path fill="#FBFCFF" opacity="1.000000" stroke="none" 
	d="
M542.000000,53.531342 
	C541.016235,50.586029 540.103882,47.149570 539.037231,43.761684 
	C531.648499,20.293236 510.224609,3.452178 485.460236,1.674072 
	C485.035126,1.409319 485.000000,1.000000 485.000000,1.000000 
	C503.924103,1.000000 522.848206,1.000000 542.000000,1.000000 
	C542.000000,18.353565 542.000000,35.708122 542.000000,53.531342 
z"/>
<path fill="#FBFCFF" opacity="1.000000" stroke="none" 
	d="
M488.468658,550.000000 
	C491.285278,549.182007 494.618256,548.518494 497.848206,547.521423 
	C521.916016,540.091858 536.022400,523.651611 541.644897,499.136658 
	C542.000000,515.928833 542.000000,532.857727 542.000000,550.000000 
	C524.312988,550.000000 506.625153,550.000000 488.468658,550.000000 
z"/>
<path fill="#2436FF" opacity="1.000000" stroke="none" 
	d="
M542.000000,493.531342 
	C541.666565,492.261963 541.041870,490.524017 541.041260,488.785889 
	C540.995605,346.540619 540.997131,204.295319 541.016296,62.050041 
	C541.016479,60.573933 541.294678,59.097858 541.721558,57.310883 
	C542.000000,202.354233 542.000000,347.708466 542.000000,493.531342 
z"/>
<path fill="#C3C8FF" opacity="1.000000" stroke="none" 
	d="
M1.892611,491.597351 
	C1.798082,492.057220 1.392701,492.117065 1.196350,492.058533 
	C1.000000,347.975922 1.000000,203.951843 1.000000,59.463882 
	C1.000000,59.000000 1.409498,58.913540 1.618017,58.931168 
	C1.885536,59.942764 1.996205,60.936733 1.996220,61.930702 
	C1.998431,204.999634 1.992606,348.068573 1.892611,491.597351 
z"/>
<path fill="#454FFF" opacity="1.000000" stroke="none" 
	d="
M56.468658,550.000000 
	C57.537380,549.657410 59.074684,549.015259 60.612156,549.014832 
	C199.568497,548.978943 338.524841,548.990479 477.481171,549.018188 
	C479.796844,549.018677 482.112457,549.256226 484.714050,549.691589 
	C342.312439,550.000000 199.624878,550.000000 56.468658,550.000000 
z"/>
<path fill="#C1C7FF" opacity="1.000000" stroke="none" 
	d="
M484.536133,1.000000 
	C485.000000,1.000000 485.035126,1.409319 485.044159,1.614530 
	C482.394348,1.878818 479.735474,1.989415 477.076630,1.989587 
	C338.006958,1.998579 198.937317,1.998217 59.407093,1.909305 
	C58.946533,1.819770 58.964088,1.409287 58.982044,1.204643 
	C200.690750,1.000000 342.381500,1.000000 484.536133,1.000000 
z"/>
<path fill="#F5F7FB" opacity="1.000000" stroke="none" 
	d="
M374.842590,139.761368 
	C382.174500,138.583298 389.546722,137.611511 396.830872,136.188812 
	C419.371399,131.786346 430.157654,120.629089 433.793610,97.705193 
	C434.947632,90.429497 435.238831,83.019402 436.011597,75.679939 
	C436.528015,70.775635 437.149597,65.880417 437.864502,61.001705 
	C437.946228,60.443882 438.933807,60.018791 439.887024,59.201435 
	C440.684631,67.158119 441.150757,74.733704 442.271240,82.211235 
	C443.543762,90.703453 444.943939,99.227226 447.106293,107.524185 
	C450.874847,121.984070 460.462708,131.196259 474.961456,134.501846 
	C485.555511,136.917206 496.399567,138.235779 507.569824,140.432220 
	C507.985992,141.913712 507.964508,143.006226 507.943024,144.098724 
	C506.244507,144.355576 504.546021,144.612427 502.202057,144.672775 
	C500.696899,144.919495 499.837219,145.362732 498.977539,145.805969 
	C498.215881,145.793900 497.454224,145.781815 496.042847,145.562347 
	C493.285065,145.747131 491.177002,146.139313 489.068909,146.531509 
	C488.175415,146.654739 487.281891,146.777985 485.934692,146.941437 
	C485.480957,146.981644 485.573456,146.981857 485.573456,146.981873 
	C484.348785,147.266068 483.124084,147.550262 481.159607,147.710983 
	C478.961609,148.092926 477.503387,148.598343 476.045166,149.103760 
	C476.045166,149.103760 476.048859,149.016556 475.889648,149.028992 
	C475.474518,149.061874 475.264404,149.170761 475.100098,149.368073 
	C474.654419,149.571930 474.208740,149.775803 473.245148,149.979156 
	C472.518524,149.992462 472.342499,150.075531 472.199188,150.227859 
	C471.902802,150.390945 471.606384,150.554031 470.852478,150.889679 
	C470.394958,151.062210 470.528015,151.087952 470.528015,151.087952 
	C469.969879,151.308594 469.411743,151.529251 468.214661,151.627380 
	C467.037231,151.935822 466.498810,152.366776 465.960388,152.797729 
	C465.960388,152.797714 465.679779,153.099915 465.217529,153.145386 
	C464.491821,153.408554 464.228333,153.626251 463.964874,153.843964 
	C448.962219,163.032043 445.181488,178.261002 443.362030,193.978424 
	C441.797913,207.490250 441.188934,221.172073 441.106384,234.784485 
	C440.887115,270.945557 440.721710,307.120087 441.532684,343.266876 
	C441.797119,355.053925 444.327057,366.978882 447.258423,378.474182 
	C451.955994,396.895508 466.256927,404.529602 483.674652,407.151886 
	C498.472290,409.379700 513.382629,410.858978 528.389465,413.457977 
	C522.974792,413.814148 517.533020,413.942505 512.152161,414.583160 
	C505.134460,415.418671 498.173248,416.717896 491.171478,417.702118 
	C487.780304,418.178833 484.275513,418.045898 480.952942,418.780548 
	C457.756744,423.909332 447.613861,434.832336 444.194641,458.600189 
	C442.448761,470.735992 441.162292,482.937866 438.701782,495.419800 
	C438.357452,493.837799 437.891022,492.271301 437.688293,490.671387 
	C436.166382,478.662781 434.983093,466.603607 433.148376,454.643982 
	C429.753052,432.511719 415.816772,421.134247 394.387421,417.958282 
	C389.858917,417.287109 385.223511,417.364929 380.668671,416.830627 
	C378.667328,416.595825 376.744568,415.691559 373.927795,415.042511 
	C367.417267,414.850525 361.765137,414.585632 356.112854,414.582825 
	C298.222717,414.554016 240.332581,414.550537 182.442490,414.597626 
	C176.963989,414.602051 171.485794,414.998505 166.007462,415.212952 
	C155.747879,417.112396 145.450668,418.831909 135.240448,420.967285 
	C126.827110,422.726898 120.060333,427.290131 114.619965,434.565979 
	C113.876762,432.008850 113.589432,429.257538 113.338463,426.854492 
	C115.934731,425.920563 117.853256,425.410065 119.609680,424.563293 
	C124.006699,422.443451 128.325043,420.160828 132.689468,417.972473 
	C133.274963,417.678925 133.935181,417.413696 134.576233,417.371857 
	C138.026321,417.146729 141.503952,417.162659 144.917831,416.697327 
	C145.719345,416.588135 146.311127,414.940094 146.999695,414.000000 
	C147.000000,414.000000 147.000610,414.000000 147.427094,414.001465 
	C151.433334,414.002930 155.013092,414.002930 160.003052,414.002930 
	C156.034210,411.946564 153.442734,409.821106 150.554703,409.280762 
	C145.526810,408.340088 140.298676,407.934448 135.186890,408.134125 
	C130.475693,408.318115 128.575989,406.239380 128.368637,402.080414 
	C144.769165,408.845306 161.820114,410.581787 178.826340,410.707947 
	C236.304825,411.134399 293.790100,411.109222 351.268890,410.703125 
	C365.828217,410.600250 380.448334,409.009064 394.906219,407.090057 
	C415.006348,404.422211 428.905853,393.719391 432.652130,372.980225 
	C434.946564,360.278442 436.940125,347.339081 437.138824,334.476562 
	C437.722992,296.664368 437.717255,258.831512 437.135559,221.019196 
	C436.935059,207.987061 435.044403,194.864792 432.671448,182.015366 
	C430.371216,169.559937 424.587921,158.659622 412.187073,153.028214 
	C401.309174,148.088409 389.800751,145.952591 377.852783,145.804092 
	C375.230988,145.771500 372.623047,144.626068 370.211029,143.743378 
	C370.947205,142.379135 371.481079,141.264618 372.259033,140.048264 
	C372.657806,139.861877 372.812531,139.777313 372.967224,139.692764 
	C373.129913,139.742599 373.292633,139.792450 373.860504,139.928406 
	C374.487885,139.998306 374.680206,139.913925 374.842590,139.761368 
M161.466644,414.488159 
	C161.466644,414.488159 161.513046,414.470917 161.466644,414.488159 
z"/>
<path fill="#FFFFFF" opacity="1.000000" stroke="none" 
	d="
M97.143906,193.978088 
	C97.033165,193.065170 96.922424,192.152267 96.902985,190.529388 
	C96.709671,188.159058 101.302986,185.189468 95.689842,184.959213 
	C95.466995,184.225067 95.244156,183.490906 95.301247,182.110657 
	C97.213882,177.707840 93.967842,165.035995 90.752052,162.171646 
	C89.575996,161.124130 88.650536,159.793274 87.623482,158.580887 
	C85.677460,156.283707 84.575798,152.831009 80.354446,153.740692 
	C79.763504,153.868011 78.478485,152.612885 78.136459,151.750961 
	C76.278122,147.067856 73.820587,146.230728 69.996246,148.912003 
	C69.319107,147.970718 68.743057,146.328964 67.956772,146.221222 
	C64.381042,145.731201 60.663055,145.104660 57.155548,145.617249 
	C53.549854,146.144226 51.454781,144.790085 49.520535,142.270340 
	C48.736576,141.249084 47.902843,140.266006 47.091759,139.265564 
	C48.150101,138.853516 49.208447,138.441452 50.822571,138.046692 
	C51.378349,138.063965 51.661839,137.946228 51.661839,137.946228 
	C52.160038,137.731766 52.658234,137.517303 53.641434,137.583557 
	C54.751801,137.659821 55.377167,137.455353 56.002533,137.250885 
	C56.002529,137.250885 56.369385,136.974411 56.536285,136.901276 
	C56.703182,136.828125 56.603958,136.867218 56.603958,136.867218 
	C57.121952,136.688797 57.639950,136.510376 58.681744,136.653046 
	C60.136841,136.598740 61.068138,136.223373 61.999435,135.847992 
	C62.283066,135.704132 62.566692,135.560287 63.491787,135.678650 
	C65.229820,136.236359 66.313026,136.716263 67.425163,136.796829 
	C73.739258,137.254272 76.748085,135.111557 76.732307,130.293106 
	C77.300842,129.868301 77.869370,129.443497 78.967407,129.200592 
	C82.206871,128.819702 84.916840,128.256912 87.563980,127.707169 
	C86.922005,125.329308 86.509087,123.799858 86.096169,122.270409 
	C86.096169,122.270409 86.063492,122.082291 86.323853,121.958664 
	C86.788177,121.653633 86.928871,121.432053 87.006287,121.170303 
	C87.006287,121.170303 87.002098,120.992737 87.453110,120.934692 
	C89.500320,120.159035 91.971260,119.859215 92.546822,118.654137 
	C95.643295,112.170914 97.518295,105.340172 96.073563,98.018478 
	C96.052414,97.559624 96.031273,97.100769 96.288513,96.067886 
	C96.696663,94.704788 96.826439,93.915733 96.956207,93.126671 
	C96.968170,92.345093 96.980141,91.563515 97.410995,90.327187 
	C99.868454,88.584106 101.907028,87.295784 104.046669,86.246521 
	C104.150200,86.826553 104.152672,87.167526 104.067383,87.919449 
	C103.839645,90.754791 100.782021,93.956917 105.761864,95.016602 
	C105.761864,95.016602 106.073418,95.389557 106.070816,96.008362 
	C106.242882,97.697128 106.417549,98.767105 106.273041,100.082405 
	C106.244499,103.080772 106.881851,105.848701 106.764389,108.584221 
	C106.310684,119.150269 114.693092,123.620506 120.997299,129.489868 
	C121.620438,130.070007 123.193420,129.629929 124.325546,129.663361 
	C124.325546,129.663361 123.987045,129.920319 124.079544,130.175400 
	C124.390030,131.791321 124.608025,133.152176 124.695618,133.699005 
	C130.297714,135.101913 134.991837,136.449371 139.766068,137.390182 
	C141.735260,137.778244 143.876602,137.292786 145.939636,137.204620 
	C148.855011,137.520065 151.770386,137.835526 154.813721,138.589859 
	C153.990555,141.442490 153.039429,143.856247 151.783676,146.433533 
	C150.326859,146.663940 149.174683,146.730820 147.889008,146.624542 
	C147.532959,146.257309 147.282181,146.111954 146.704315,145.775604 
	C141.606888,146.267258 136.828842,147.236298 132.003113,147.652008 
	C128.378342,147.964279 126.328613,149.091202 126.867783,153.319473 
	C126.339478,153.678986 125.972115,153.791855 125.251389,153.885620 
	C119.841927,152.716293 115.491547,152.955902 113.725159,159.055771 
	C113.434494,160.059525 112.359924,160.864273 111.574600,161.691666 
	C109.065254,164.335388 109.881065,165.686417 113.176407,166.395813 
	C112.598610,167.527817 112.078720,168.367279 111.219109,169.135605 
	C109.937248,168.850067 108.995110,168.635666 107.898399,168.386093 
	C107.018806,173.099533 106.189552,177.539581 105.361877,181.979919 
	C104.943230,184.225922 105.257339,187.123535 103.956680,188.581726 
	C101.337303,191.518341 102.149826,193.168793 104.879272,195.313599 
	C104.770546,196.100174 104.621178,196.539230 104.323959,197.243378 
	C102.861732,201.312515 101.686951,199.015442 100.394577,197.462860 
	C99.379929,196.243912 98.232407,195.135574 97.143906,193.978088 
M87.593361,153.777664 
	C87.765472,153.985550 87.937576,154.193451 88.109688,154.401337 
	C88.221016,154.297623 88.332344,154.193909 88.443672,154.090195 
	C88.246674,153.905167 88.049675,153.720123 87.593361,153.777664 
z"/>
<path fill="#FFFFFF" opacity="1.000000" stroke="none" 
	d="
M146.999390,414.000000 
	C146.311127,414.940094 145.719345,416.588135 144.917831,416.697327 
	C141.503952,417.162659 138.026321,417.146729 134.576233,417.371857 
	C133.935181,417.413696 133.274963,417.678925 132.689468,417.972473 
	C128.325043,420.160828 124.006699,422.443451 119.609680,424.563293 
	C117.853256,425.410065 115.934731,425.920563 113.338463,426.854492 
	C113.589432,429.257538 113.876762,432.008850 114.489380,434.886475 
	C114.723831,435.320923 114.633011,435.629059 114.064346,436.071564 
	C113.322067,436.387970 113.131279,436.628418 113.014137,436.927277 
	C112.975655,437.121429 112.937180,437.315552 112.345673,437.739319 
	C110.037560,437.859070 108.282494,437.749146 106.609566,437.644379 
	C105.564980,441.881042 107.252373,445.763245 105.492241,450.007019 
	C104.223785,453.065338 105.608185,457.325409 102.327332,460.120483 
	C102.164490,460.259247 102.277924,460.755524 102.306938,461.081390 
	C102.855835,467.246307 102.744530,467.332062 97.187271,464.980072 
	C97.103546,464.177246 97.019814,463.374390 97.016113,461.847778 
	C97.163498,459.298859 100.619370,456.642426 95.840569,456.006226 
	C95.840569,456.006226 95.684280,455.917511 95.698547,455.522034 
	C95.536133,454.760101 95.359444,454.393677 95.182755,454.027222 
	C95.113106,453.591919 95.043442,453.156616 95.339096,452.253571 
	C97.389755,448.184326 96.261879,441.341187 93.955376,438.688141 
	C92.160942,436.624084 90.317085,434.334015 89.423576,431.815063 
	C87.852394,427.385620 85.293579,425.765350 80.827850,427.153229 
	C80.827850,427.153229 80.908943,427.097687 80.823242,426.858459 
	C80.491165,426.079071 80.244797,425.538910 80.083099,424.957336 
	C80.167763,424.915924 80.184502,424.698517 80.184502,424.698517 
	C80.184502,424.698517 80.001144,425.001221 79.737083,424.779755 
	C77.648048,423.038269 75.823082,421.518250 74.338646,419.981628 
	C75.452316,419.309631 76.225456,418.654205 77.083603,417.957642 
	C77.168625,417.916473 77.185524,417.698334 77.185524,417.698334 
	C77.185524,417.698334 77.001045,418.001221 76.687889,418.049377 
	C75.583549,418.732239 74.792358,419.366913 73.677147,419.855774 
	C63.560684,417.495605 53.768250,415.281250 44.000542,413.072449 
	C44.625141,412.841858 45.978188,412.626953 46.957993,411.905273 
	C48.067848,411.087830 48.843082,409.816040 50.062180,408.650146 
	C51.189148,408.522736 52.017746,408.487000 53.002510,408.792114 
	C56.653114,412.283936 58.611324,410.539185 60.329979,406.853577 
	C62.029739,406.449890 63.401459,406.178192 65.187775,406.002319 
	C68.763351,406.447083 71.924332,406.796051 75.473259,407.187866 
	C75.257004,404.854797 75.123459,403.414001 75.163025,401.735962 
	C75.920822,401.022858 76.505486,400.546997 77.090164,400.071167 
	C77.090164,400.071167 77.024429,400.018280 77.314011,400.074524 
	C77.962524,400.050690 78.321449,399.970551 78.943085,399.801666 
	C79.461243,399.452362 79.716675,399.191803 80.082123,398.681152 
	C80.528404,398.021362 80.864662,397.611725 81.200920,397.202057 
	C81.200920,397.202057 81.026398,397.020752 81.351555,397.109070 
	C81.951393,397.011780 82.247139,396.870178 82.925705,396.938660 
	C84.832390,397.406555 86.377304,397.708282 87.612961,397.949585 
	C88.396523,395.399658 88.458672,392.855225 89.759575,391.667084 
	C90.905609,390.620361 93.435905,391.089233 94.791405,390.947662 
	C94.791405,388.816223 94.677567,386.628113 94.814148,384.455780 
	C95.138756,379.292542 95.581902,374.136810 95.977158,368.978027 
	C95.986954,368.218842 95.996742,367.459625 96.298676,366.119202 
	C96.734016,364.814880 96.877205,364.091797 97.020393,363.368683 
	C97.004379,362.829468 96.988373,362.290283 97.267105,361.073029 
	C97.665131,359.472961 97.768410,358.550964 97.871689,357.628937 
	C97.871689,357.628937 97.763901,357.289551 98.233238,357.168457 
	C100.251183,359.187836 101.756119,361.361969 103.368217,363.453522 
	C104.091782,364.392303 105.029747,365.165833 105.991745,366.276031 
	C106.071175,366.725403 106.029289,366.913147 105.931549,367.349701 
	C106.110756,368.407623 106.345833,369.216675 106.782745,370.311218 
	C106.980148,371.055084 106.975723,371.513489 106.628113,372.001892 
	C105.708130,372.648865 104.515923,373.488068 104.646461,373.849579 
	C106.736412,379.636841 108.937737,385.386353 111.248047,391.090088 
	C112.011871,392.975891 113.464096,394.612274 114.058098,396.530945 
	C115.108948,399.925262 116.686684,401.734863 120.521240,400.392212 
	C121.710159,399.975891 123.121460,400.194672 124.607651,400.115234 
	C124.784340,400.107758 124.975655,400.405273 125.098495,400.554688 
	C125.423355,400.879181 125.657364,400.980316 126.224350,401.028992 
	C127.013756,401.389008 127.502167,401.727539 127.990570,402.066040 
	C128.575989,406.239380 130.475693,408.318115 135.186890,408.134125 
	C140.298676,407.934448 145.526810,408.340088 150.554703,409.280762 
	C153.442734,409.821106 156.034210,411.946564 160.003052,414.002930 
	C155.013092,414.002930 151.433334,414.002930 147.375107,413.758728 
	C146.582855,413.223755 146.269058,412.933044 145.955261,412.642334 
	C145.852325,412.754822 145.749390,412.867340 145.646439,412.979828 
	C146.097427,413.319885 146.548401,413.659943 146.999390,414.000000 
M80.405777,402.222229 
	C80.233871,402.014557 80.061974,401.806885 79.890083,401.599213 
	C79.778870,401.702820 79.667664,401.806396 79.556419,401.910004 
	C79.753204,402.094879 79.949982,402.279755 80.405777,402.222229 
z"/>
<path fill="#F5F7FB" opacity="1.000000" stroke="none" 
	d="
M105.870422,366.014374 
	C105.029747,365.165833 104.091782,364.392303 103.368217,363.453522 
	C101.756119,361.361969 100.251183,359.187836 98.345329,357.030151 
	C98.321617,351.635620 98.655151,346.258301 99.281296,340.092957 
	C99.708786,338.158325 99.960724,337.011780 99.961494,335.865082 
	C99.984047,302.506042 99.989326,269.146973 99.953270,235.787949 
	C99.951881,234.509018 99.513397,233.230530 99.278595,231.951843 
	C99.246277,229.932968 99.213966,227.914093 99.443253,225.138702 
	C99.535454,221.573456 99.366058,218.764709 99.196663,215.955963 
	C98.469765,208.910370 97.742867,201.864777 97.079933,194.398636 
	C98.232407,195.135574 99.379929,196.243912 100.394577,197.462860 
	C101.686951,199.015442 102.861732,201.312515 104.322357,197.639099 
	C103.934006,206.307144 102.981667,214.842407 102.938080,223.382324 
	C102.761612,257.954956 102.917221,292.529114 102.837860,327.102448 
	C102.807877,340.165924 103.278564,353.166565 105.870422,366.014374 
z"/>
<path fill="#F5F7FB" opacity="1.000000" stroke="none" 
	d="
M47.065712,139.303711 
	C47.902843,140.266006 48.736576,141.249084 49.520535,142.270340 
	C51.454781,144.790085 53.549854,146.144226 57.155548,145.617249 
	C60.663055,145.104660 64.381042,145.731201 67.956772,146.221222 
	C68.743057,146.328964 69.319107,147.970718 69.996246,148.912003 
	C73.820587,146.230728 76.278122,147.067856 78.136459,151.750961 
	C78.478485,152.612885 79.763504,153.868011 80.354446,153.740692 
	C84.575798,152.831009 85.677460,156.283707 87.623482,158.580887 
	C88.650536,159.793274 89.575996,161.124130 90.752052,162.171646 
	C93.967842,165.035995 97.213882,177.707840 95.337234,181.716095 
	C94.004723,178.861862 93.018875,175.715485 91.810188,172.657181 
	C85.935616,157.792969 72.655983,149.078781 56.330521,148.216156 
	C48.546490,147.804871 40.863117,145.707626 33.098988,144.626541 
	C27.589579,143.859406 22.019753,143.530106 16.481882,142.957169 
	C15.962194,142.903397 15.478372,142.502975 15.093818,141.445023 
	C25.597443,140.533325 36.101070,139.621643 46.066170,139.215408 
	C43.679893,140.280273 40.574249,139.571930 41.943893,144.842377 
	C43.955791,142.542328 45.243347,141.070374 46.530907,139.598404 
	C46.641609,139.380936 46.811195,139.295425 47.065712,139.303711 
z"/>
<path fill="#F5F7FB" opacity="1.000000" stroke="none" 
	d="
M49.763809,408.741821 
	C48.843082,409.816040 48.067848,411.087830 46.957993,411.905273 
	C45.978188,412.626953 44.625141,412.841858 44.000542,413.072449 
	C53.768250,415.281250 63.560684,417.495605 73.676559,419.854980 
	C74.000000,420.000000 73.998100,419.998260 73.998108,419.998260 
	C75.823082,421.518250 77.648048,423.038269 79.736511,424.779144 
	C80.000000,425.000000 79.998421,424.998779 79.998428,424.998779 
	C80.244797,425.538910 80.491165,426.079071 80.812302,426.906372 
	C72.908714,422.140656 64.204170,418.908600 54.862671,417.870544 
	C43.726540,416.633087 32.524544,415.998718 21.366510,414.940369 
	C18.724758,414.689789 16.144569,413.790131 13.536066,413.189026 
	C13.545767,412.728882 13.555468,412.268738 13.565168,411.808594 
	C22.074188,411.205902 30.583208,410.603180 39.735565,409.792725 
	C40.670040,409.507172 40.915955,409.355865 41.116650,409.131042 
	C41.116650,409.131042 41.082428,409.048737 41.479408,409.197083 
	C43.264233,409.202728 44.652077,409.060028 46.039917,408.917297 
	C46.463177,408.849701 46.886436,408.782135 47.811512,408.678894 
	C48.796822,408.676086 49.280315,408.708954 49.763809,408.741821 
z"/>
<path fill="#F5F7FB" opacity="1.000000" stroke="none" 
	d="
M97.139023,465.399231 
	C102.744530,467.332062 102.855835,467.246307 102.306938,461.081390 
	C102.277924,460.755524 102.164490,460.259247 102.327332,460.120483 
	C105.608185,457.325409 104.223785,453.065338 105.492241,450.007019 
	C107.252373,445.763245 105.564980,441.881042 106.609566,437.644379 
	C108.282494,437.749146 110.037560,437.859070 112.157669,437.969025 
	C106.723900,450.005188 105.207016,463.033539 103.507401,476.809937 
	C103.371811,479.098053 103.424171,480.639343 103.476540,482.180603 
	C103.381615,482.571594 103.286697,482.962555 102.976105,484.005737 
	C102.124138,489.062653 101.487823,493.467438 100.851509,497.872192 
	C100.197334,492.081390 99.560867,486.288544 98.883545,480.500458 
	C98.310516,475.603577 97.690170,470.712219 97.139023,465.399231 
z"/>
<path fill="#0304ED" opacity="1.000000" stroke="none" 
	d="
M166.362030,415.422089 
	C171.485794,414.998505 176.963989,414.602051 182.442490,414.597626 
	C240.332581,414.550537 298.222717,414.554016 356.112854,414.582825 
	C361.765137,414.585632 367.417267,414.850525 373.528381,415.093811 
	C372.377533,415.468964 370.768005,415.983582 369.158112,415.984558 
	C302.994812,416.024841 236.831482,416.021271 170.668152,416.002838 
	C169.350937,416.002472 168.033798,415.760468 166.362030,415.422089 
z"/>
<path fill="#0311DE" opacity="1.000000" stroke="none" 
	d="
M372.603516,139.507111 
	C372.812531,139.777313 372.657806,139.861877 371.794128,139.976913 
	C318.012970,140.037247 264.940826,140.065720 211.868668,140.097870 
	C197.231491,140.106735 182.594330,140.126587 167.638184,140.034088 
	C166.906967,139.762207 166.494751,139.597626 166.082520,139.433029 
	C168.069748,139.284195 170.056931,139.006042 172.044205,139.005249 
	C237.457260,138.979156 302.870331,138.977615 368.283386,138.990601 
	C369.602234,138.990860 370.920990,139.206390 372.603516,139.507111 
z"/>
<path fill="#F5F7FB" opacity="1.000000" stroke="none" 
	d="
M80.971893,427.452820 
	C85.293579,425.765350 87.852394,427.385620 89.423576,431.815063 
	C90.317085,434.334015 92.160942,436.624084 93.955376,438.688141 
	C96.261879,441.341187 97.389755,448.184326 95.362122,451.922729 
	C91.910225,443.084869 88.927094,434.037781 80.971893,427.452820 
z"/>
<path fill="#F5F7FB" opacity="1.000000" stroke="none" 
	d="
M103.945602,86.007462 
	C101.907028,87.295784 99.868454,88.584106 97.500122,89.945908 
	C97.501747,86.689606 97.833145,83.359833 98.446556,79.263535 
	C98.882607,75.359581 99.036652,72.222145 99.190689,69.084717 
	C99.343925,68.591812 99.497162,68.098915 99.776375,66.920654 
	C100.066223,63.904129 100.230087,61.572968 100.393959,59.241806 
	C100.770782,59.250633 101.147606,59.259457 101.524437,59.268280 
	C102.103645,63.206722 102.682854,67.145164 103.262054,71.083603 
	C103.277359,71.484627 103.292664,71.885651 103.303528,73.006622 
	C103.514595,77.820206 103.730103,81.913834 103.945602,86.007462 
z"/>
<path fill="#F5F7FB" opacity="1.000000" stroke="none" 
	d="
M95.739487,369.180115 
	C95.581902,374.136810 95.138756,379.292542 94.814148,384.455780 
	C94.677567,386.628113 94.791405,388.816223 94.791405,390.947662 
	C93.435905,391.089233 90.905609,390.620361 89.759575,391.667084 
	C88.458672,392.855225 88.396523,395.399658 87.612961,397.949585 
	C86.377304,397.708282 84.832390,397.406555 83.099762,396.674133 
	C83.810265,395.111084 84.708488,393.978699 85.606712,392.846313 
	C91.104790,386.554260 93.115036,378.849670 94.547356,370.897552 
	C94.645485,370.352814 95.173630,369.885498 95.739487,369.180115 
z"/>
<path fill="#ABBDFF" opacity="1.000000" stroke="none" 
	d="
M99.135818,232.404449 
	C99.513397,233.230530 99.951881,234.509018 99.953270,235.787949 
	C99.989326,269.146973 99.984047,302.506042 99.961494,335.865082 
	C99.960724,337.011780 99.708786,338.158325 99.348724,339.647400 
	C99.054245,321.224457 98.950615,302.459137 98.925819,283.693726 
	C98.903427,266.748230 98.967247,249.802628 99.135818,232.404449 
z"/>
<path fill="#F5F7FB" opacity="1.000000" stroke="none" 
	d="
M124.144150,129.386475 
	C123.193420,129.629929 121.620438,130.070007 120.997299,129.489868 
	C114.693092,123.620506 106.310684,119.150269 106.764389,108.584221 
	C106.881851,105.848701 106.244499,103.080772 106.434113,100.404099 
	C107.842857,103.499832 108.771362,106.519196 109.699867,109.538559 
	C112.225800,117.686211 116.874245,124.287033 124.144150,129.386475 
z"/>
<path fill="#F5F7FB" opacity="1.000000" stroke="none" 
	d="
M95.865364,98.331161 
	C97.518295,105.340172 95.643295,112.170914 92.546822,118.654137 
	C91.971260,119.859215 89.500320,120.159035 87.541885,120.932434 
	C90.005493,113.540108 92.831329,106.091980 95.865364,98.331161 
z"/>
<path fill="#F5F7FB" opacity="1.000000" stroke="none" 
	d="
M145.631180,136.992737 
	C143.876602,137.292786 141.735260,137.778244 139.766068,137.390182 
	C134.991837,136.449371 130.297714,135.101913 124.695618,133.699005 
	C124.608025,133.152176 124.390030,131.791321 124.243637,130.039520 
	C131.317734,132.026001 138.320221,134.403427 145.631180,136.992737 
z"/>
<path fill="#E3E7F5" opacity="1.000000" stroke="none" 
	d="
M508.348724,144.146118 
	C507.964508,143.006226 507.985992,141.913712 507.998901,140.492767 
	C513.509033,140.554794 519.027710,140.945282 524.546326,141.335770 
	C524.554443,142.008224 524.562561,142.680664 524.570679,143.353119 
	C519.298584,143.633255 514.026489,143.913391 508.348724,144.146118 
z"/>
<path fill="#3E4CDB" opacity="1.000000" stroke="none" 
	d="
M103.457855,70.723366 
	C102.682854,67.145164 102.103645,63.206722 101.524437,59.268280 
	C101.147606,59.259457 100.770782,59.250633 100.393959,59.241806 
	C100.230087,61.572968 100.066223,63.904129 99.760056,66.660286 
	C99.617752,61.957233 99.617752,56.829185 99.617752,51.701138 
	C100.360504,51.675808 101.103264,51.650478 101.846016,51.625149 
	C102.448570,57.871143 103.051117,64.117134 103.457855,70.723366 
z"/>
<path fill="#3E4CDB" opacity="1.000000" stroke="none" 
	d="
M50.062180,408.650146 
	C49.280315,408.708954 48.796822,408.676086 48.097473,408.527618 
	C55.010921,406.425690 62.150524,404.475250 69.263748,402.432953 
	C71.648018,401.748383 73.965050,400.829651 76.701492,400.044556 
	C76.505486,400.546997 75.920822,401.022858 74.798637,401.778961 
	C71.098473,403.341644 67.935822,404.624084 64.773178,405.906494 
	C63.401459,406.178192 62.029739,406.449890 59.951218,406.816895 
	C57.111721,407.425201 54.979034,407.938232 52.846344,408.451263 
	C52.017746,408.487000 51.189148,408.522736 50.062180,408.650146 
z"/>
<path fill="#F5F7FB" opacity="1.000000" stroke="none" 
	d="
M76.438644,130.301758 
	C76.748085,135.111557 73.739258,137.254272 67.425163,136.796829 
	C66.313026,136.716263 65.229820,136.236359 63.707291,135.808563 
	C67.569214,133.887634 71.857101,132.099014 76.438644,130.301758 
z"/>
<path fill="#3E4CDB" opacity="1.000000" stroke="none" 
	d="
M104.046669,86.246521 
	C103.730103,81.913834 103.514595,77.820206 103.406555,73.290726 
	C104.456734,79.698936 105.399437,86.542984 105.880775,93.421326 
	C104.997993,91.473251 104.576569,89.490875 104.155144,87.508507 
	C104.152672,87.167526 104.150200,86.826553 104.046669,86.246521 
z"/>
<path fill="#F5F7FB" opacity="1.000000" stroke="none" 
	d="
M165.690155,139.450989 
	C166.494751,139.597626 166.906967,139.762207 167.413208,140.233795 
	C166.890091,141.071671 166.272980,141.602539 165.512680,142.256607 
	C167.645630,142.913055 169.304199,143.423492 170.948868,143.963654 
	C170.934982,143.993362 170.891647,143.944122 170.529190,143.911652 
	C168.783386,144.148972 167.400024,144.418747 165.683960,144.771439 
	C164.894638,144.877762 164.438065,144.901169 163.789948,144.706726 
	C163.053909,144.301041 162.509399,144.113220 161.907806,143.583893 
	C160.237366,142.165161 158.624008,141.087906 157.005096,140.004913 
	C156.999542,139.999176 156.989456,139.986649 156.947693,139.797928 
	C156.905914,139.609207 156.770966,139.246490 156.826218,139.187042 
	C156.881470,139.127579 156.991837,139.008545 156.991837,139.008545 
	C159.760483,139.162018 162.529144,139.315491 165.690155,139.450989 
z"/>
<path fill="#F5F7FB" opacity="1.000000" stroke="none" 
	d="
M85.807480,122.413322 
	C86.509087,123.799858 86.922005,125.329308 87.563980,127.707169 
	C84.916840,128.256912 82.206871,128.819702 79.237442,129.181732 
	C81.158241,126.839394 83.338516,124.697815 85.807480,122.413322 
z"/>
<path fill="#F5F7FB" opacity="1.000000" stroke="none" 
	d="
M152.088318,146.270004 
	C153.039429,143.856247 153.990555,141.442490 155.196167,138.706787 
	C155.450684,138.384842 155.461884,138.431793 155.654938,138.617172 
	C155.981430,138.929504 156.114899,139.056458 156.325073,139.353485 
	C156.561844,139.723297 156.757751,139.877670 156.989456,139.986649 
	C156.989456,139.986649 156.999542,139.999176 157.018280,140.344009 
	C157.696426,141.818069 158.355835,142.947281 159.000977,144.315613 
	C158.938599,144.872849 158.927139,145.192322 158.537796,145.640686 
	C156.111618,145.935532 154.099960,146.102768 152.088318,146.270004 
z"/>
<path fill="#3E4CDB" opacity="1.000000" stroke="none" 
	d="
M101.213852,497.803955 
	C101.487823,493.467438 102.124138,489.062653 102.981277,484.308319 
	C103.768089,488.681824 105.118378,493.497467 101.213852,497.803955 
z"/>
<path fill="#3E4CDB" opacity="1.000000" stroke="none" 
	d="
M109.769432,109.102127 
	C108.771362,106.519196 107.842857,103.499832 106.753288,100.158768 
	C106.417549,98.767105 106.242882,97.697128 106.173759,96.228455 
	C107.465874,100.108406 108.652435,104.387047 109.769432,109.102127 
z"/>
<path fill="#FFFFFF" opacity="1.000000" stroke="none" 
	d="
M46.490246,139.579163 
	C45.243347,141.070374 43.955791,142.542328 41.943893,144.842377 
	C40.574249,139.571930 43.679893,140.280273 45.959282,139.606262 
	C46.390919,139.491669 46.449585,139.559906 46.490246,139.579163 
z"/>
<path fill="#3E4CDB" opacity="1.000000" stroke="none" 
	d="
M98.923752,69.352875 
	C99.036652,72.222145 98.882607,75.359581 98.480545,78.839752 
	C98.373947,75.995346 98.515373,72.808189 98.923752,69.352875 
z"/>
<path fill="#F5F7FB" opacity="1.000000" stroke="none" 
	d="
M104.067383,87.919449 
	C104.576569,89.490875 104.997993,91.473251 105.675247,93.731552 
	C105.923882,94.179169 105.916664,94.350861 105.835663,94.769577 
	C100.782021,93.956917 103.839645,90.754791 104.067383,87.919449 
z"/>
<path fill="#E3E7F5" opacity="1.000000" stroke="none" 
	d="
M489.479614,146.616913 
	C491.177002,146.139313 493.285065,145.747131 495.657898,145.566467 
	C493.911896,146.086090 491.901123,146.394196 489.479614,146.616913 
z"/>
<path fill="#3E4CDB" opacity="1.000000" stroke="none" 
	d="
M85.271530,392.885742 
	C84.708488,393.978699 83.810265,395.111084 82.737991,396.507996 
	C82.247139,396.870178 81.951393,397.011780 81.429962,397.207428 
	C82.434250,395.786713 83.685295,394.355957 85.271530,392.885742 
z"/>
<path fill="#F5F7FB" opacity="1.000000" stroke="none" 
	d="
M95.841248,456.390594 
	C100.619370,456.642426 97.163498,459.298859 97.051666,461.443634 
	C96.618767,460.100494 96.230347,458.437744 95.841248,456.390594 
z"/>
<path fill="#F5F7FB" opacity="1.000000" stroke="none" 
	d="
M95.701538,185.319183 
	C101.302986,185.189468 96.709671,188.159058 96.921082,190.184052 
	C96.469658,188.925507 96.091446,187.302322 95.701538,185.319183 
z"/>
<path fill="#3E4CDB" opacity="1.000000" stroke="none" 
	d="
M103.740540,481.990112 
	C103.424171,480.639343 103.371811,479.098053 103.508270,477.219055 
	C103.799568,478.520752 103.902054,480.160217 103.740540,481.990112 
z"/>
<path fill="#ABBDFF" opacity="1.000000" stroke="none" 
	d="
M99.078247,216.398331 
	C99.366058,218.764709 99.535454,221.573456 99.493645,224.708496 
	C99.174904,222.303436 99.067368,219.572067 99.078247,216.398331 
z"/>
<path fill="#3E4CDB" opacity="1.000000" stroke="none" 
	d="
M80.842178,397.185913 
	C80.864662,397.611725 80.528404,398.021362 79.816330,398.763611 
	C79.187126,399.360962 78.933746,399.625702 78.680359,399.890442 
	C78.321449,399.970551 77.962524,400.050690 77.326637,400.114807 
	C78.194260,399.122437 79.338852,398.146088 80.842178,397.185913 
z"/>
<path fill="#E3E7F5" opacity="1.000000" stroke="none" 
	d="
M499.327698,145.872498 
	C499.837219,145.362732 500.696899,144.919495 501.766602,144.685333 
	C501.210327,145.242630 500.444092,145.590836 499.327698,145.872498 
z"/>
<path fill="#E3E7F5" opacity="1.000000" stroke="none" 
	d="
M476.421082,149.116623 
	C477.503387,148.598343 478.961609,148.092926 480.683777,147.696533 
	C479.564148,148.246872 478.180542,148.688171 476.421082,149.116623 
z"/>
<path fill="#F5F7FB" opacity="1.000000" stroke="none" 
	d="
M61.611603,135.838272 
	C61.068138,136.223373 60.136841,136.598740 59.092110,136.696655 
	C59.727039,136.222321 60.475407,136.025436 61.611603,135.838272 
z"/>
<path fill="#3E4CDB" opacity="1.000000" stroke="none" 
	d="
M45.744774,408.763184 
	C44.652077,409.060028 43.264233,409.202728 41.467415,409.240021 
	C42.522163,408.959412 43.985893,408.784241 45.744774,408.763184 
z"/>
<path fill="#E3E7F5" opacity="1.000000" stroke="none" 
	d="
M466.250427,152.788605 
	C466.498810,152.366776 467.037231,151.935822 467.765015,151.661407 
	C467.483063,152.138474 467.011749,152.458984 466.250427,152.788605 
z"/>
<path fill="#F5F7FB" opacity="1.000000" stroke="none" 
	d="
M55.663956,137.178955 
	C55.377167,137.455353 54.751801,137.659821 54.053886,137.630096 
	C54.429348,137.299622 54.877361,137.203323 55.663956,137.178955 
z"/>
<path fill="#F5F7FB" opacity="1.000000" stroke="none" 
	d="
M96.753059,93.357773 
	C96.826439,93.915733 96.696663,94.704788 96.372925,95.732910 
	C96.302612,95.177605 96.426262,94.383240 96.753059,93.357773 
z"/>
<path fill="#F5F7FB" opacity="1.000000" stroke="none" 
	d="
M97.634415,357.897766 
	C97.768410,358.550964 97.665131,359.472961 97.352737,360.676514 
	C97.228127,360.027557 97.312630,359.097076 97.634415,357.897766 
z"/>
<path fill="#F5F7FB" opacity="1.000000" stroke="none" 
	d="
M96.851097,363.591370 
	C96.877205,364.091797 96.734016,364.814880 96.403458,365.753662 
	C96.371330,365.250916 96.526566,364.532471 96.851097,363.591370 
z"/>
<path fill="#F5F7FB" opacity="1.000000" stroke="none" 
	d="
M51.593155,137.841522 
	C51.661839,137.946228 51.378349,138.063965 51.300957,138.060211 
	C51.204185,137.836914 51.304489,137.730377 51.593155,137.841522 
z"/>
<path fill="#F5F7FB" opacity="1.000000" stroke="none" 
	d="
M86.791077,121.224449 
	C86.928871,121.432053 86.788177,121.653633 86.418472,121.945923 
	C86.185333,121.724632 86.293045,121.465218 86.791077,121.224449 
z"/>
<path fill="#F5F7FB" opacity="1.000000" stroke="none" 
	d="
M56.553314,136.955185 
	C56.603958,136.867218 56.703182,136.828125 56.740181,136.795532 
	C56.777184,136.762939 56.502670,137.043152 56.553314,136.955185 
z"/>
<path fill="#E3E7F5" opacity="1.000000" stroke="none" 
	d="
M470.517212,151.035889 
	C470.528015,151.087952 470.394958,151.062210 470.368408,151.041916 
	C470.341858,151.021622 470.506409,150.983826 470.517212,151.035889 
z"/>
<path fill="#E3E7F5" opacity="1.000000" stroke="none" 
	d="
M485.514282,146.966248 
	C485.573456,146.981857 485.480957,146.981644 485.483124,146.959717 
	C485.485291,146.937805 485.455078,146.950638 485.514282,146.966248 
z"/>
<path fill="#F5F7FB" opacity="1.000000" stroke="none" 
	d="
M95.128319,454.350067 
	C95.359444,454.393677 95.536133,454.760101 95.724747,455.436096 
	C95.515739,455.388031 95.294807,455.030487 95.128319,454.350067 
z"/>
<path fill="#F5F7FB" opacity="1.000000" stroke="none" 
	d="
M113.230972,436.837952 
	C113.131279,436.628418 113.322067,436.387970 113.796982,436.104858 
	C113.886101,436.301056 113.699554,436.549316 113.230972,436.837952 
z"/>
<path fill="#3E4CDB" opacity="1.000000" stroke="none" 
	d="
M40.872551,409.070740 
	C40.915955,409.355865 40.670040,409.507172 40.165565,409.632507 
	C40.177635,409.456848 40.403046,409.233643 40.872551,409.070740 
z"/>
<path fill="#E3E7F5" opacity="1.000000" stroke="none" 
	d="
M374.683044,139.669891 
	C374.680206,139.913925 374.487885,139.998306 374.106445,139.996674 
	C374.052429,139.720215 374.244537,139.586746 374.683044,139.669891 
z"/>
<path fill="#F5F7FB" opacity="1.000000" stroke="none" 
	d="
M155.664062,138.596313 
	C155.902878,138.466370 156.325577,138.542648 156.870056,138.813736 
	C156.991837,139.008545 156.881470,139.127579 156.697815,139.155930 
	C156.514175,139.184280 156.248383,139.183426 156.248383,139.183426 
	C156.114899,139.056458 155.981430,138.929504 155.664062,138.596313 
z"/>
<path fill="#E3E7F5" opacity="1.000000" stroke="none" 
	d="
M475.284943,149.460114 
	C475.264404,149.170761 475.474518,149.061874 475.910248,149.067474 
	C476.000153,149.404526 475.793396,149.557404 475.284943,149.460114 
z"/>
<path fill="#E3E7F5" opacity="1.000000" stroke="none" 
	d="
M472.348267,150.320435 
	C472.342499,150.075531 472.518524,149.992462 472.875732,149.995438 
	C472.946625,150.274948 472.771027,150.408539 472.348267,150.320435 
z"/>
<path fill="#E3E7F5" opacity="1.000000" stroke="none" 
	d="
M464.230774,153.820984 
	C464.228333,153.626251 464.491821,153.408554 465.011353,153.144745 
	C465.010498,153.331757 464.753571,153.564896 464.230774,153.820984 
z"/>
<path fill="#0216FE" opacity="1.000000" stroke="none" 
	d="
M151.783676,146.433533 
	C154.099960,146.102768 156.111618,145.935532 158.937164,145.689056 
	C161.161194,145.381409 162.571335,145.153000 163.981476,144.924591 
	C164.438065,144.901169 164.894638,144.877762 166.038422,144.849915 
	C168.114288,144.545029 169.502960,144.244568 170.891647,143.944122 
	C170.891647,143.944122 170.934982,143.993362 171.215622,144.045868 
	C171.675812,144.147217 171.855377,144.196045 172.391617,144.445221 
	C174.066254,144.768799 175.384186,144.999481 176.702179,144.999863 
	C238.851852,145.017792 301.001526,145.021698 363.151154,144.982895 
	C364.766266,144.981888 366.381042,144.489288 368.330200,144.167572 
	C369.112518,144.070511 369.560638,144.031815 370.008728,143.993103 
	C372.623047,144.626068 375.230988,145.771500 377.852783,145.804092 
	C389.800751,145.952591 401.309174,148.088409 412.187073,153.028214 
	C424.587921,158.659622 430.371216,169.559937 432.671448,182.015366 
	C435.044403,194.864792 436.935059,207.987061 437.135559,221.019196 
	C437.717255,258.831512 437.722992,296.664368 437.138824,334.476562 
	C436.940125,347.339081 434.946564,360.278442 432.652130,372.980225 
	C428.905853,393.719391 415.006348,404.422211 394.906219,407.090057 
	C380.448334,409.009064 365.828217,410.600250 351.268890,410.703125 
	C293.790100,411.109222 236.304825,411.134399 178.826340,410.707947 
	C161.820114,410.581787 144.769165,408.845306 128.368622,402.080414 
	C127.502167,401.727539 127.013756,401.389008 126.140320,400.833832 
	C125.541084,400.378540 125.281204,400.307892 124.975655,400.405273 
	C124.975655,400.405273 124.784340,400.107758 124.428581,399.869873 
	C120.551163,395.940613 116.270912,392.705414 113.705124,388.439148 
	C110.684593,383.416718 109.150139,377.500519 106.971298,371.971893 
	C106.975723,371.513489 106.980148,371.055084 106.781685,370.008606 
	C106.381660,368.647308 106.184532,367.874084 105.987411,367.100861 
	C106.029289,366.913147 106.071175,366.725403 105.991737,366.276031 
	C103.278564,353.166565 102.807877,340.165924 102.837860,327.102448 
	C102.917221,292.529114 102.761612,257.954956 102.938080,223.382324 
	C102.981667,214.842407 103.934006,206.307144 104.470200,197.374023 
	C104.621178,196.539230 104.770546,196.100174 105.054230,194.970474 
	C107.311974,185.922134 109.435410,177.564438 111.558838,169.206741 
	C112.078720,168.367279 112.598610,167.527817 113.451630,166.212677 
	C117.724762,161.792892 121.664749,157.848801 125.604752,153.904694 
	C125.972115,153.791855 126.339478,153.678986 127.246353,153.283539 
	C134.200943,151.026947 140.615997,149.052963 147.304626,147.099213 
	C147.726288,147.012192 147.874390,146.904953 148.022507,146.797699 
	C149.174683,146.730820 150.326859,146.663940 151.783676,146.433533 
M283.486389,298.437073 
	C289.983002,298.421692 296.480560,298.330872 302.976013,298.410034 
	C311.125519,298.509369 312.123749,299.478729 312.146057,307.713409 
	C312.199707,327.536621 312.130066,347.360138 312.164978,367.183441 
	C312.168640,369.253082 312.539062,371.322052 312.733063,373.326874 
	C333.614594,373.320251 351.877655,358.031830 353.897858,337.972565 
	C355.160065,325.439758 355.293640,312.637482 354.277344,300.090302 
	C353.683685,292.760559 350.959595,285.033234 347.218475,278.640900 
	C337.909546,262.735077 322.758362,256.188721 304.801697,256.032440 
	C282.648346,255.839645 260.491425,256.083160 238.336029,256.087860 
	C230.513794,256.089539 229.399719,255.058670 229.340683,247.148972 
	C229.264832,236.989044 229.475174,226.827316 229.505341,216.666183 
	C229.540283,204.895477 229.513458,193.124588 229.513458,181.433701 
	C210.516464,180.036530 191.103485,195.065002 188.207840,214.399323 
	C186.399246,226.475311 187.032974,238.957962 187.048172,251.257538 
	C187.078644,275.883759 205.458649,296.317719 230.069763,297.882172 
	C247.484863,298.989197 265.013153,298.315735 283.486389,298.437073 
M315.126587,224.155899 
	C322.878021,241.317123 341.151550,253.447052 354.186066,250.303741 
	C354.186066,239.476227 354.598236,228.689331 354.056458,217.950592 
	C353.618042,209.261169 349.671234,201.641617 343.929199,195.130951 
	C335.703918,185.804642 325.297272,181.227768 312.091736,181.067474 
	C312.550049,195.513229 310.284760,209.628464 315.126587,224.155899 
M186.976959,322.497314 
	C186.991165,326.321472 186.880081,330.150879 187.040314,333.968933 
	C187.953522,355.729279 207.930695,374.555023 229.202103,373.140564 
	C229.202103,363.454346 229.829422,353.661499 228.978027,343.998932 
	C228.425247,337.725464 226.631760,331.179047 223.793427,325.564117 
	C216.576477,311.287262 200.934479,302.551239 186.978409,304.216003 
	C186.978409,309.934540 186.978409,315.716766 186.976959,322.497314 
z"/>
<path fill="#E3E7F5" opacity="1.000000" stroke="none" 
	d="
M172.034943,144.244888 
	C171.855377,144.196045 171.675812,144.147217 171.229507,144.016159 
	C169.304199,143.423492 167.645630,142.913055 165.512680,142.256607 
	C166.272980,141.602539 166.890091,141.071671 167.732178,140.341095 
	C182.594330,140.126587 197.231491,140.106735 211.868668,140.097870 
	C264.940826,140.065720 318.012970,140.037247 371.550049,140.078735 
	C371.481079,141.264618 370.947205,142.379135 370.211029,143.743378 
	C369.560638,144.031815 369.112518,144.070511 367.870209,144.064194 
	C303.050934,144.004227 239.025879,143.988022 175.000824,143.985550 
	C174.012192,143.985519 173.023575,144.154694 172.034943,144.244888 
z"/>
<path fill="#FFFFFF" opacity="1.000000" stroke="none" 
	d="
M161.489838,414.479553 
	C161.513046,414.470917 161.466644,414.488159 161.489838,414.479553 
z"/>
<path fill="#F5F7FB" opacity="1.000000" stroke="none" 
	d="
M125.251389,153.885620 
	C121.664749,157.848801 117.724762,161.792892 113.509544,165.920135 
	C109.881065,165.686417 109.065254,164.335388 111.574600,161.691666 
	C112.359924,160.864273 113.434494,160.059525 113.725159,159.055771 
	C115.491547,152.955902 119.841927,152.716293 125.251389,153.885620 
z"/>
<path fill="#F5F7FB" opacity="1.000000" stroke="none" 
	d="
M147.031067,147.078979 
	C140.615997,149.052963 134.200943,151.026947 127.407295,153.036880 
	C126.328613,149.091202 128.378342,147.964279 132.003113,147.652008 
	C136.828842,147.236298 141.606888,146.267258 146.707947,146.041519 
	C147.017334,146.724411 147.024200,146.901688 147.031067,147.078979 
z"/>
<path fill="#F5F7FB" opacity="1.000000" stroke="none" 
	d="
M111.219109,169.135605 
	C109.435410,177.564438 107.311974,185.922134 105.013596,194.622955 
	C102.149826,193.168793 101.337303,191.518341 103.956680,188.581726 
	C105.257339,187.123535 104.943230,184.225922 105.361877,181.979919 
	C106.189552,177.539581 107.018806,173.099533 107.898399,168.386093 
	C108.995110,168.635666 109.937248,168.850067 111.219109,169.135605 
z"/>
<path fill="#F5F7FB" opacity="1.000000" stroke="none" 
	d="
M87.723022,153.656372 
	C88.049675,153.720123 88.246674,153.905167 88.443672,154.090195 
	C88.332344,154.193909 88.221016,154.297623 88.109688,154.401337 
	C87.937576,154.193451 87.765472,153.985550 87.723022,153.656372 
z"/>
<path fill="#E3E7F5" opacity="1.000000" stroke="none" 
	d="
M147.304626,147.099213 
	C147.024200,146.901688 147.017334,146.724411 147.006836,146.281204 
	C147.282181,146.111954 147.532959,146.257309 147.889008,146.624542 
	C147.874390,146.904953 147.726288,147.012192 147.304626,147.099213 
z"/>
<path fill="#F5F7FB" opacity="1.000000" stroke="none" 
	d="
M106.628113,372.001892 
	C109.150139,377.500519 110.684593,383.416718 113.705124,388.439148 
	C116.270912,392.705414 120.551163,395.940613 124.251892,399.877380 
	C123.121460,400.194672 121.710159,399.975891 120.521240,400.392212 
	C116.686684,401.734863 115.108948,399.925262 114.058098,396.530945 
	C113.464096,394.612274 112.011871,392.975891 111.248047,391.090088 
	C108.937737,385.386353 106.736412,379.636841 104.646461,373.849579 
	C104.515923,373.488068 105.708130,372.648865 106.628113,372.001892 
z"/>
<path fill="#F5F7FB" opacity="1.000000" stroke="none" 
	d="
M65.187775,406.002319 
	C67.935822,404.624084 71.098473,403.341644 74.625519,402.016205 
	C75.123459,403.414001 75.257004,404.854797 75.473259,407.187866 
	C71.924332,406.796051 68.763351,406.447083 65.187775,406.002319 
z"/>
<path fill="#F5F7FB" opacity="1.000000" stroke="none" 
	d="
M53.002510,408.792114 
	C54.979034,407.938232 57.111721,407.425201 59.623177,406.948883 
	C58.611324,410.539185 56.653114,412.283936 53.002510,408.792114 
z"/>
<path fill="#F5F7FB" opacity="1.000000" stroke="none" 
	d="
M76.998581,417.998779 
	C76.225456,418.654205 75.452316,419.309631 74.338638,419.981628 
	C73.998100,419.998260 74.000000,420.000000 74.000587,420.000793 
	C74.792358,419.366913 75.583549,418.732239 76.687363,418.048767 
	C77.000000,418.000000 76.998581,417.998779 76.998581,417.998779 
z"/>
<path fill="#F5F7FB" opacity="1.000000" stroke="none" 
	d="
M146.999695,414.000000 
	C146.548401,413.659943 146.097427,413.319885 145.646439,412.979828 
	C145.749390,412.867340 145.852325,412.754822 145.955261,412.642334 
	C146.269058,412.933044 146.582855,413.223755 146.948624,413.757263 
	C147.000610,414.000000 147.000000,414.000000 146.999695,414.000000 
z"/>
<path fill="#F5F7FB" opacity="1.000000" stroke="none" 
	d="
M80.276276,402.343445 
	C79.949982,402.279755 79.753204,402.094879 79.556435,401.909973 
	C79.667664,401.806396 79.778870,401.702820 79.890076,401.599213 
	C80.061974,401.806885 80.233871,402.014557 80.276276,402.343445 
z"/>
<path fill="#F5F7FB" opacity="1.000000" stroke="none" 
	d="
M105.931549,367.349701 
	C106.184532,367.874084 106.381660,368.647308 106.579849,369.723145 
	C106.345833,369.216675 106.110756,368.407623 105.931549,367.349701 
z"/>
<path fill="#F5F7FB" opacity="1.000000" stroke="none" 
	d="
M125.098495,400.554688 
	C125.281204,400.307892 125.541084,400.378540 125.839325,400.812317 
	C125.657364,400.980316 125.423355,400.879181 125.098495,400.554688 
z"/>
<path fill="#F5F7FB" opacity="1.000000" stroke="none" 
	d="
M78.943085,399.801697 
	C78.933746,399.625702 79.187126,399.360962 79.706306,399.013733 
	C79.716675,399.191803 79.461243,399.452362 78.943085,399.801697 
z"/>
<path fill="#F5F7FB" opacity="1.000000" stroke="none" 
	d="
M80.000572,425.000610 
	C80.001144,425.001221 80.184502,424.698517 80.184502,424.698517 
	C80.184502,424.698517 80.167763,424.915924 80.083092,424.957336 
	C79.998421,424.998779 80.000000,425.000000 80.000572,425.000610 
z"/>
<path fill="#F5F7FB" opacity="1.000000" stroke="none" 
	d="
M77.000519,418.000610 
	C77.001045,418.001221 77.185524,417.698334 77.185524,417.698334 
	C77.185524,417.698334 77.168625,417.916473 77.083603,417.957642 
	C76.998581,417.998779 77.000000,418.000000 77.000519,418.000610 
z"/>
<path fill="#FFFFFF" opacity="1.000000" stroke="none" 
	d="
M159.015244,144.076508 
	C158.355835,142.947281 157.696426,141.818069 157.023834,140.349762 
	C158.624008,141.087906 160.237366,142.165161 161.539673,143.606079 
	C160.490829,144.005325 159.753036,144.040909 159.015244,144.076508 
z"/>
<path fill="#E3E7F5" opacity="1.000000" stroke="none" 
	d="
M159.000977,144.315613 
	C159.753036,144.040909 160.490829,144.005325 161.596771,143.947571 
	C162.509399,144.113220 163.053909,144.301041 163.789948,144.706726 
	C162.571335,145.153000 161.161194,145.381409 159.351685,145.561462 
	C158.927139,145.192322 158.938599,144.872849 159.000977,144.315613 
z"/>
<path fill="#E3E7F5" opacity="1.000000" stroke="none" 
	d="
M170.529190,143.911652 
	C169.502960,144.244568 168.114288,144.545029 166.371140,144.766998 
	C167.400024,144.418747 168.783386,144.148972 170.529190,143.911652 
z"/>
<path fill="#FFFFFF" opacity="1.000000" stroke="none" 
	d="
M156.325073,139.353485 
	C156.248383,139.183426 156.514175,139.184280 156.642578,139.215393 
	C156.770966,139.246490 156.905914,139.609207 156.947693,139.797928 
	C156.757751,139.877670 156.561844,139.723297 156.325073,139.353485 
z"/>
<path fill="#FDFDFF" opacity="1.000000" stroke="none" 
	d="
M282.988647,298.437073 
	C265.013153,298.315735 247.484863,298.989197 230.069763,297.882172 
	C205.458649,296.317719 187.078644,275.883759 187.048172,251.257538 
	C187.032974,238.957962 186.399246,226.475311 188.207840,214.399323 
	C191.103485,195.065002 210.516464,180.036530 229.513458,181.433701 
	C229.513458,193.124588 229.540283,204.895477 229.505341,216.666183 
	C229.475174,226.827316 229.264832,236.989044 229.340683,247.148972 
	C229.399719,255.058670 230.513794,256.089539 238.336029,256.087860 
	C260.491425,256.083160 282.648346,255.839645 304.801697,256.032440 
	C322.758362,256.188721 337.909546,262.735077 347.218475,278.640900 
	C350.959595,285.033234 353.683685,292.760559 354.277344,300.090302 
	C355.293640,312.637482 355.160065,325.439758 353.897858,337.972565 
	C351.877655,358.031830 333.614594,373.320251 312.733063,373.326874 
	C312.539062,371.322052 312.168640,369.253082 312.164978,367.183441 
	C312.130066,347.360138 312.199707,327.536621 312.146057,307.713409 
	C312.123749,299.478729 311.125519,298.509369 302.976013,298.410034 
	C296.480560,298.330872 289.983002,298.421692 282.988647,298.437073 
z"/>
<path fill="#FCFCFF" opacity="1.000000" stroke="none" 
	d="
M315.030579,223.774994 
	C310.284760,209.628464 312.550049,195.513229 312.091736,181.067474 
	C325.297272,181.227768 335.703918,185.804642 343.929199,195.130951 
	C349.671234,201.641617 353.618042,209.261169 354.056458,217.950592 
	C354.598236,228.689331 354.186066,239.476227 354.186066,250.303741 
	C341.151550,253.447052 322.878021,241.317123 315.030579,223.774994 
z"/>
<path fill="#FCFDFF" opacity="1.000000" stroke="none" 
	d="
M186.977692,321.998169 
	C186.978409,315.716766 186.978409,309.934540 186.978409,304.216003 
	C200.934479,302.551239 216.576477,311.287262 223.793427,325.564117 
	C226.631760,331.179047 228.425247,337.725464 228.978027,343.998932 
	C229.829422,353.661499 229.202103,363.454346 229.202103,373.140564 
	C207.930695,374.555023 187.953522,355.729279 187.040314,333.968933 
	C186.880081,330.150879 186.991165,326.321472 186.977692,321.998169 
z"/>
<path fill="#0103DE" opacity="1.000000" stroke="none" 
	d="
M172.391617,144.445221 
	C173.023575,144.154694 174.012192,143.985519 175.000824,143.985550 
	C239.025879,143.988022 303.050934,144.004227 367.535980,144.122559 
	C366.381042,144.489288 364.766266,144.981888 363.151154,144.982895 
	C301.001526,145.021698 238.851852,145.017792 176.702179,144.999863 
	C175.384186,144.999481 174.066254,144.768799 172.391617,144.445221 
z"/>
</svg>