<svg width="325.84999999999997px" height="126.56000366210937px" xmlns="http://www.w3.org/2000/svg" viewBox="87.07500000000002 11.719998168945317 325.84999999999997 126.56000366210937" style="background: rgba(0, 0, 0, 0);" preserveAspectRatio="xMidYMid"><defs><filter id="editing-raise" x="-100%" y="-100%" width="300%" height="300%"><feFlood flood-color="#ccc" result="flood-surface"></feFlood><feFlood flood-color="#777" result="flood-extrude"></feFlood><feMorphology operator="erode" in="SourceAlpha" radius="1" result="erode"></feMorphology><feConvolveMatrix in="erode" result="shadow" order="11,8" divisor="1" kernelMatrix="0 0 0 1 1 1 1 1 0 0 0 0 0 1 0 0 0 0 0 1 0 0 0 0 1 0 0 0 0 0 1 0 0 0 0 1 0 0 0 0 0 1 0 0 0 0 1 0 0 0 0 0 1 0 0 0 0 0 1 0 0 0 1 0 0 0 0 0 0 1 1 0 1 1 0 0 0 0 0 0 0 0 1 0 0 0 0 0"></feConvolveMatrix><feOffset dx="0" dy="4" in="shadow" result="offset"></feOffset><feGaussianBlur in="offset" stdDeviation="0.2" result="blur"></feGaussianBlur><feComposite operator="in" in="flood-extrude" in2="blur" result="extrude"></feComposite><feMorphology operator="erode" in="SourceAlpha" radius="1" result="erode2"></feMorphology><feConvolveMatrix in="erode2" result="out" order="4,4" divisor="1" kernelMatrix="0 1 1 0 1 0 0 1 1 0 0 1 0 1 1 0 "></feConvolveMatrix><feComposite operator="in" in="flood-surface" in2="out" result="text"></feComposite><feMerge><feMergeNode in="extrude"></feMergeNode><feMergeNode in="text"></feMergeNode></feMerge></filter></defs><g filter="url(#editing-raise)"><g transform="translate(137.77501130104065, 98.1050033569336)"><path d="M10.18-34.37L10.18-34.37L10.11-28.16L10.11-28.16Q10.11-27.78 10.37-27.78L10.37-27.78L10.37-27.78Q10.62-27.78 10.88-27.97L10.88-27.97L10.88-27.97Q12.48-29.06 15.94-29.06L15.94-29.06L15.94-29.06Q21.76-29.06 24-25.09L24-25.09L24-25.09Q24.83-23.62 24.83-21.18L24.83-21.18L24.83-21.18Q24.83-18.75 24.54-14.46L24.54-14.46L24.54-14.46Q24.26-10.18 24.26-8.38L24.26-8.38L24.26-8.38Q24.26-2.11 26.05-0.06L26.05-0.06L26.05-0.06Q26.37 0.26 26.37 0.58L26.37 0.58L26.37 0.58Q26.37 1.22 23.62 1.22L23.62 1.22L23.62 1.22Q16.19 1.22 16.19-5.70L16.19-5.70L16.19-5.70Q16.19-8.38 17.47-13.25L17.47-13.25L17.47-13.25Q18.75-18.11 18.75-20.42L18.75-20.42L18.75-20.42Q18.75-22.72 17.66-23.97L17.66-23.97L17.66-23.97Q16.58-25.22 14.66-25.22L14.66-25.22L14.66-25.22Q12.74-25.22 11.62-24.38L11.62-24.38L11.62-24.38Q10.50-23.55 10.24-22.66L10.24-22.66L10.05-21.82L10.05-21.82Q9.98-20.61 9.98-14.08L9.98-14.08L9.98-14.08Q9.98-7.55 10.30-5.60L10.30-5.60L10.30-5.60Q10.62-3.65 10.62-3.39L10.62-3.39L10.62-3.39Q10.62-1.54 8.13-0.10L8.13-0.10L8.13-0.10Q5.63 1.34 3.20 1.34L3.20 1.34L3.20 1.34Q2.30 1.34 2.30 0.32L2.30 0.32L2.43-0.90L2.43-0.90Q3.84-11.65 3.84-24.19L3.84-24.19L3.84-24.19Q3.84-29.06 3.46-34.05L3.46-34.05L3.39-35.46L3.39-35.46Q3.26-37.25 2.66-38.53L2.66-38.53L2.66-38.53Q2.05-39.81 1.54-40.19L1.54-40.19L0.96-40.51L0.96-40.51Q0.51-40.77 0.51-41.09L0.51-41.09L0.51-41.09Q0.51-41.98 3.52-43.30L3.52-43.30L3.52-43.30Q6.53-44.61 8.16-44.61L8.16-44.61L8.16-44.61Q9.79-44.61 9.92-43.90L9.92-43.90L9.92-43.90Q10.18-40.64 10.18-34.37ZM34.56-24.13L34.56-24.13L34.56-24.13Q32.90-24.06 32.16-24.03L32.16-24.03L32.16-24.03Q31.42-24 31.42-24.38L31.42-24.38L31.42-24.38Q31.42-24.77 31.81-25.15L31.81-25.15L31.81-25.15Q35.90-28.93 45.63-28.93L45.63-28.93L45.63-28.93Q48.96-28.93 50.88-28.35L50.88-28.35L51.52-28.16L51.52-28.16Q52.29-27.84 52.29-27.46L52.29-27.46L52.29-27.46Q52.29-27.14 51.84-26.94L51.84-26.94L51.84-26.94Q50.11-26.43 48.51-25.31L48.51-25.31L48.51-25.31Q46.91-24.19 46.91-23.74L46.91-23.74L47.30-23.30L47.30-23.30Q49.34-22.14 50.46-19.65L50.46-19.65L50.46-19.65Q51.58-17.15 51.71-15.23L51.71-15.23L51.84-13.25L51.84-13.25Q51.84-6.91 48.32-2.82L48.32-2.82L48.32-2.82Q44.80 1.28 38.72 1.28L38.72 1.28L38.72 1.28Q35.65 1.28 33.41 0.19L33.41 0.19L33.41 0.19Q31.17-0.90 30.11-2.27L30.11-2.27L30.11-2.27Q29.06-3.65 28.42-5.38L28.42-5.38L28.42-5.38Q27.65-7.74 27.65-10.27L27.65-10.27L27.65-10.27Q27.65-12.80 28.51-15.36L28.51-15.36L28.51-15.36Q29.38-17.92 30.50-19.14L30.50-19.14L30.50-19.14Q31.62-20.35 33.02-21.12L33.02-21.12L33.02-21.12Q34.82-22.08 35.90-22.08L35.90-22.08L35.90-22.08Q36.99-22.08 36.99-21.63L36.99-21.63L36.61-20.99L36.61-20.99Q35.20-19.33 34.59-16.64L34.59-16.64L34.59-16.64Q33.98-13.95 33.98-11.87L33.98-11.87L33.98-11.87Q33.98-9.79 34.50-7.74L34.50-7.74L34.50-7.74Q35.01-5.70 35.65-4.70L35.65-4.70L35.65-4.70Q36.29-3.71 37.12-3.20L37.12-3.20L37.12-3.20Q38.34-2.43 39.68-2.43L39.68-2.43L39.68-2.43Q41.02-2.43 42.30-3.49L42.30-3.49L42.30-3.49Q43.58-4.54 44.16-6.27L44.16-6.27L44.16-6.27Q45.31-9.47 45.31-12.86L45.31-12.86L45.31-12.86Q45.31-18.24 42.59-21.18L42.59-21.18L42.59-21.18Q39.87-24.13 34.56-24.13ZM69.63 0.38L69.63 0.38L69.63 0.38Q70.53-4.10 70.53-12.19L70.53-12.19L70.53-12.19Q70.53-20.29 70.46-21.76L70.46-21.76L70.46-21.76Q70.40-23.23 69.57-24.13L69.57-24.13L69.57-24.13Q68.74-25.02 68.13-25.15L68.13-25.15L68.13-25.15Q67.52-25.28 66.43-25.28L66.43-25.28L66.43-25.28Q65.34-25.28 64.32-24.29L64.32-24.29L64.32-24.29Q63.30-23.30 63.10-22.27L63.10-22.27L62.85-21.25L62.85-21.25Q62.66-19.33 62.66-12.74L62.66-12.74L62.66-12.74Q62.66-6.14 62.94-4.45L62.94-4.45L62.94-4.45Q63.23-2.75 63.23-2.18L63.23-2.18L63.23-2.18Q63.23-1.60 62.72-1.02L62.72-1.02L62.72-1.02Q60.54 1.28 56.58 1.28L56.58 1.28L56.58 1.28Q55.17 1.28 55.17 0.45L55.17 0.45L55.17 0.45Q56.45-7.23 56.45-19.14L56.45-19.14L56.45-19.14Q56.45-23.55 56.26-25.09L56.26-25.09L56.00-27.14L56.00-27.14Q55.94-27.84 55.74-28.67L55.74-28.67L55.74-28.67Q55.74-29.44 57.73-29.44L57.73-29.44L57.73-29.44Q60.67-29.44 61.63-27.26L61.63-27.26L61.63-27.26Q61.70-27.01 61.89-27.01L61.89-27.01L61.89-27.01Q62.08-27.01 62.78-27.52L62.78-27.52L62.78-27.52Q64.90-29.18 68.48-29.18L68.48-29.18L68.48-29.18Q70.53-29.18 72.51-28.42L72.51-28.42L72.51-28.42Q74.50-27.65 75.26-26.37L75.26-26.37L75.26-26.37Q75.33-26.24 75.46-26.24L75.46-26.24L75.46-26.24Q75.58-26.24 75.84-26.50L75.84-26.50L75.84-26.50Q78.53-29.18 82.82-29.18L82.82-29.18L82.82-29.18Q88.51-29.18 90.62-25.09L90.62-25.09L90.62-25.09Q91.39-23.49 91.39-21.06L91.39-21.06L91.39-21.06Q91.39-18.62 91.01-14.14L91.01-14.14L91.01-14.14Q90.62-9.66 90.62-7.30L90.62-7.30L90.62-7.30Q90.62-4.93 91.10-3.01L91.10-3.01L91.10-3.01Q91.58-1.09 92.06-0.26L92.06-0.26L92.06-0.26Q92.54 0.58 92.54 0.70L92.54 0.70L92.54 0.70Q92.54 1.54 90.75 1.54L90.75 1.54L90.75 1.54Q86.34 1.54 84.61-0.26L84.61-0.26L84.61-0.26Q82.88-2.05 82.88-4.96L82.88-4.96L82.88-4.96Q82.88-7.87 84.06-12.83L84.06-12.83L84.06-12.83Q85.25-17.79 85.25-20.29L85.25-20.29L85.25-20.29Q85.25-25.34 81.15-25.34L81.15-25.34L81.15-25.34Q79.42-25.34 78.40-24.32L78.40-24.32L78.40-24.32Q77.38-23.30 77.18-22.27L77.18-22.27L77.06-21.25L77.06-21.25Q76.80-18.30 76.80-14.14L76.80-14.14L76.80-14.14Q76.80-9.98 76.93-7.65L76.93-7.65L76.93-7.65Q77.06-5.31 77.18-4L77.18-4L77.18-4Q77.31-2.69 77.31-2.43L77.31-2.43L77.31-2.43Q77.31-0.64 75.07 0.32L75.07 0.32L75.07 0.32Q72.83 1.28 70.72 1.28L70.72 1.28L70.72 1.28Q69.63 1.28 69.63 0.38ZM100.74-16.26L100.74-16.26L100.80-14.66L100.80-14.66Q100.80-14.27 101.31-14.27L101.31-14.27L101.31-14.27Q103.36-14.46 104.90-15.33L104.90-15.33L104.90-15.33Q106.43-16.19 107.20-17.28L107.20-17.28L107.20-17.28Q108.74-19.65 108.86-21.38L108.86-21.38L108.93-22.14L108.93-22.14Q108.93-25.60 106.18-25.60L106.18-25.60L106.18-25.60Q104.13-25.60 102.85-23.81L102.85-23.81L102.85-23.81Q100.74-20.99 100.74-16.26ZM114.69-7.74L114.69-7.74L114.69-7.74Q114.69-5.31 113.70-3.49L113.70-3.49L113.70-3.49Q112.70-1.66 111.46-0.80L111.46-0.80L111.46-0.80Q110.21 0.06 108.54 0.58L108.54 0.58L108.54 0.58Q106.43 1.22 104.51 1.22L104.51 1.22L104.51 1.22Q99.14 1.22 96.58-2.82L96.58-2.82L96.58-2.82Q94.02-6.85 94.02-13.09L94.02-13.09L94.02-13.09Q94.02-19.33 97.18-24.19L97.18-24.19L97.18-24.19Q100.35-29.06 106.69-29.06L106.69-29.06L106.69-29.06Q112.45-29.06 114.50-25.02L114.50-25.02L114.50-25.02Q115.33-23.49 115.33-22.11L115.33-22.11L115.33-22.11Q115.33-20.74 115.20-19.94L115.20-19.94L115.20-19.94Q115.07-19.14 114.30-17.54L114.30-17.54L114.30-17.54Q113.54-15.94 112.26-14.66L112.26-14.66L112.26-14.66Q110.98-13.38 108.22-12.22L108.22-12.22L108.22-12.22Q105.47-11.07 101.76-10.69L101.76-10.69L101.76-10.69Q101.25-10.69 101.25-10.24L101.25-10.24L101.25-10.24Q101.25-9.66 101.66-8.54L101.66-8.54L101.66-8.54Q102.08-7.42 102.59-6.66L102.59-6.66L102.59-6.66Q104-4.86 106.75-4.86L106.75-4.86L106.75-4.86Q109.50-4.86 111.42-6.66L111.42-6.66L111.42-6.66Q112.45-7.62 113.09-9.02L113.09-9.02L113.09-9.02Q113.34-9.54 113.76-9.54L113.76-9.54L113.76-9.54Q114.18-9.54 114.43-8.83L114.43-8.83L114.43-8.83Q114.69-8.13 114.69-7.74ZM137.66-8.77L137.66-8.77L137.66-8.77Q137.66-6.02 136.61-3.97L136.61-3.97L136.61-3.97Q135.55-1.92 134.21-0.96L134.21-0.96L134.21-0.96Q132.86 0 131.01 0.58L131.01 0.58L131.01 0.58Q128.58 1.34 126.59 1.34L126.59 1.34L126.59 1.34Q122.43 1.34 119.68-0.29L119.68-0.29L119.68-0.29Q116.93-1.92 116.93-5.50L116.93-5.50L116.93-5.50Q116.93-7.62 118.08-8.96L118.08-8.96L118.08-8.96Q119.87-10.94 122.37-10.94L122.37-10.94L122.37-10.94Q123.14-10.94 123.14-10.24L123.14-10.24L123.14-10.24Q123.14-10.18 122.85-9.25L122.85-9.25L122.85-9.25Q122.56-8.32 122.56-6.91L122.56-6.91L122.56-6.91Q122.56-5.50 123.68-4.42L123.68-4.42L123.68-4.42Q124.80-3.33 126.40-3.33L126.40-3.33L126.40-3.33Q128-3.33 128.96-3.87L128.96-3.87L128.96-3.87Q129.92-4.42 130.30-5.25L130.30-5.25L130.30-5.25Q130.88-6.40 130.88-7.42L130.88-7.42L130.88-7.42Q130.88-9.28 129.02-10.62L129.02-10.62L129.02-10.62Q127.17-11.97 124.93-12.74L124.93-12.74L124.93-12.74Q122.69-13.50 120.83-15.30L120.83-15.30L120.83-15.30Q118.98-17.09 118.98-19.78L118.98-19.78L118.98-19.78Q118.98-24.38 121.89-26.69L121.89-26.69L121.89-26.69Q124.80-28.99 129.79-28.99L129.79-28.99L129.79-28.99Q131.97-28.99 134.37-28.38L134.37-28.38L134.37-28.38Q136.77-27.78 136.77-26.34L136.77-26.34L136.77-26.34Q136.77-24.90 136.29-23.68L136.29-23.68L136.29-23.68Q135.81-22.46 135.10-22.46L135.10-22.46L135.10-22.46Q134.72-22.46 134.59-22.75L134.59-22.75L134.59-22.75Q134.46-23.04 134.14-23.42L134.14-23.42L134.14-23.42Q133.82-23.81 132.61-24.42L132.61-24.42L132.61-24.42Q131.39-25.02 130.53-25.02L130.53-25.02L130.53-25.02Q129.66-25.02 129.38-24.99L129.38-24.99L129.38-24.99Q129.09-24.96 128.38-24.80L128.38-24.80L128.38-24.80Q127.68-24.64 127.10-24.32L127.10-24.32L127.10-24.32Q125.63-23.49 125.63-21.89L125.63-21.89L125.63-21.89Q125.63-20.86 126.08-20.38L126.08-20.38L126.08-20.38Q126.53-19.90 126.78-19.65L126.78-19.65L126.78-19.65Q127.04-19.39 127.68-19.04L127.68-19.04L127.68-19.04Q128.32-18.69 128.58-18.56L128.58-18.56L128.58-18.56Q128.83-18.43 129.73-18.02L129.73-18.02L129.73-18.02Q130.62-17.60 130.88-17.47L130.88-17.47L130.88-17.47Q137.66-14.27 137.66-8.77ZM146.50-24.13L146.50-24.13L146.50-24.13Q144.83-24.06 144.10-24.03L144.10-24.03L144.10-24.03Q143.36-24 143.36-24.38L143.36-24.38L143.36-24.38Q143.36-24.77 143.74-25.15L143.74-25.15L143.74-25.15Q147.84-28.93 157.57-28.93L157.57-28.93L157.57-28.93Q160.90-28.93 162.82-28.35L162.82-28.35L163.46-28.16L163.46-28.16Q164.22-27.84 164.22-27.46L164.22-27.46L164.22-27.46Q164.22-27.14 163.78-26.94L163.78-26.94L163.78-26.94Q162.05-26.43 160.45-25.31L160.45-25.31L160.45-25.31Q158.85-24.19 158.85-23.74L158.85-23.74L159.23-23.30L159.23-23.30Q161.28-22.14 162.40-19.65L162.40-19.65L162.40-19.65Q163.52-17.15 163.65-15.23L163.65-15.23L163.78-13.25L163.78-13.25Q163.78-6.91 160.26-2.82L160.26-2.82L160.26-2.82Q156.74 1.28 150.66 1.28L150.66 1.28L150.66 1.28Q147.58 1.28 145.34 0.19L145.34 0.19L145.34 0.19Q143.10-0.90 142.05-2.27L142.05-2.27L142.05-2.27Q140.99-3.65 140.35-5.38L140.35-5.38L140.35-5.38Q139.58-7.74 139.58-10.27L139.58-10.27L139.58-10.27Q139.58-12.80 140.45-15.36L140.45-15.36L140.45-15.36Q141.31-17.92 142.43-19.14L142.43-19.14L142.43-19.14Q143.55-20.35 144.96-21.12L144.96-21.12L144.96-21.12Q146.75-22.08 147.84-22.08L147.84-22.08L147.84-22.08Q148.93-22.08 148.93-21.63L148.93-21.63L148.54-20.99L148.54-20.99Q147.14-19.33 146.53-16.64L146.53-16.64L146.53-16.64Q145.92-13.95 145.92-11.87L145.92-11.87L145.92-11.87Q145.92-9.79 146.43-7.74L146.43-7.74L146.43-7.74Q146.94-5.70 147.58-4.70L147.58-4.70L147.58-4.70Q148.22-3.71 149.06-3.20L149.06-3.20L149.06-3.20Q150.27-2.43 151.62-2.43L151.62-2.43L151.62-2.43Q152.96-2.43 154.24-3.49L154.24-3.49L154.24-3.49Q155.52-4.54 156.10-6.27L156.10-6.27L156.10-6.27Q157.25-9.47 157.25-12.86L157.25-12.86L157.25-12.86Q157.25-18.24 154.53-21.18L154.53-21.18L154.53-21.18Q151.81-24.13 146.50-24.13ZM174.46-36.61L174.46-36.61L174.08-13.12L174.08-13.12Q174.08-2.11 174.78 0.06L174.78 0.06L174.78 0.06Q174.98 0.45 174.98 0.83L174.98 0.83L174.98 0.83Q174.98 1.60 173.12 1.60L173.12 1.60L173.12 1.60Q171.26 1.60 168.99 0.67L168.99 0.67L168.99 0.67Q166.72-0.26 166.72-1.73L166.72-1.73L166.72-1.73Q168-10.69 168-25.66L168-25.66L167.74-35.46L167.74-35.46Q167.62-37.25 167.01-38.53L167.01-38.53L167.01-38.53Q166.40-39.81 165.82-40.19L165.82-40.19L165.31-40.51L165.31-40.51Q164.86-40.77 164.86-41.09L164.86-41.09L164.86-41.09Q164.86-41.98 167.65-43.30L167.65-43.30L167.65-43.30Q170.43-44.61 173.06-44.61L173.06-44.61L173.06-44.61Q174.08-44.61 174.21-43.90L174.21-43.90L174.21-43.90Q174.46-42.24 174.46-36.61ZM200.19-19.20L200.19-19.20L200.06-11.01L200.06-11.01Q200.06-2.50 201.92-0.77L201.92-0.77L201.92-0.77Q202.18-0.51 202.18-0.19L202.18-0.19L202.18-0.19Q202.18 0.77 198.05 0.77L198.05 0.77L198.05 0.77Q193.92 0.77 193.66-1.66L193.66-1.66L193.66-1.66Q193.60-2.24 193.60-4.03L193.60-4.03L193.86-14.27L193.86-14.27Q193.86-14.72 193.34-14.72L193.34-14.72L193.34-14.72Q190.27-14.72 187.58-12.99L187.58-12.99L187.58-12.99Q184.90-11.26 184.90-8.58L184.90-8.58L184.90-8.58Q184.90-7.17 185.66-6.21L185.66-6.21L185.66-6.21Q186.43-5.25 187.55-5.25L187.55-5.25L187.55-5.25Q188.67-5.25 189.41-5.70L189.41-5.70L189.41-5.70Q190.14-6.14 190.27-6.21L190.27-6.21L190.27-6.21Q191.36-6.08 191.36-3.94L191.36-3.94L191.36-3.94Q191.36-1.79 189.38-0.48L189.38-0.48L189.38-0.48Q187.39 0.83 185.22 0.83L185.22 0.83L185.22 0.83Q183.04 0.83 181.47 0.06L181.47 0.06L181.47 0.06Q179.90-0.70 179.20-1.66L179.20-1.66L179.20-1.66Q178.50-2.62 178.05-3.84L178.05-3.84L178.05-3.84Q177.60-5.31 177.60-6.40L177.60-6.40L177.60-6.40Q177.60-10.88 180.42-13.57L180.42-13.57L180.42-13.57Q183.23-16.26 187.65-17.41L187.65-17.41L187.65-17.41Q193.47-18.56 193.73-19.52L193.73-19.52L193.73-19.52Q193.92-20.22 193.92-21.89L193.92-21.89L193.92-21.89Q193.92-25.28 190.46-25.28L190.46-25.28L190.46-25.28Q188.99-25.28 187.84-24.35L187.84-24.35L187.84-24.35Q186.69-23.42 186.69-22.02L186.69-22.02L187.07-20.48L187.07-20.48Q186.94-19.39 184.77-19.20L184.77-19.20L184.06-19.14L184.06-19.14Q182.14-19.14 181.02-20.10L181.02-20.10L181.02-20.10Q179.90-21.06 179.90-22.66L179.90-22.66L179.90-22.66Q179.90-23.68 180.58-24.93L180.58-24.93L180.58-24.93Q181.25-26.18 182.27-26.94L182.27-26.94L182.27-26.94Q183.30-27.71 185.44-28.32L185.44-28.32L185.44-28.32Q187.58-28.93 189.57-28.93L189.57-28.93L189.57-28.93Q191.55-28.93 192.64-28.80L192.64-28.80L192.64-28.80Q193.73-28.67 195.62-28.19L195.62-28.19L195.62-28.19Q197.50-27.71 198.75-26.37L198.75-26.37L198.75-26.37Q200-25.02 200.10-23.52L200.10-23.52L200.10-23.52Q200.19-22.02 200.19-19.20ZM223.94-22.02L223.62-17.15L223.87-14.91L223.87-14.91Q223.87-13.70 221.57-13.70L221.57-13.70L221.57-13.70Q216.90-13.70 216.90-17.22L216.90-17.22L216.90-17.22Q216.90-18.05 217.34-19.52L217.34-19.52L217.34-19.52Q217.79-20.99 217.79-22.08L217.79-22.08L217.79-22.08Q217.79-23.17 217.15-23.97L217.15-23.97L217.15-23.97Q216.51-24.77 215.30-24.77L215.30-24.77L215.30-24.77Q214.08-24.77 213.22-23.90L213.22-23.90L213.22-23.90Q212.35-23.04 212.16-22.14L212.16-22.14L211.90-21.25L211.90-21.25Q211.52-19.26 211.52-14.62L211.52-14.62L211.52-14.62Q211.52-9.98 211.65-7.33L211.65-7.33L211.65-7.33Q211.78-4.67 211.90-3.68L211.90-3.68L211.90-3.68Q212.03-2.69 212.03-2.50L212.03-2.50L212.03-2.50Q212.03-0.90 210.05 0.10L210.05 0.10L210.05 0.10Q208.06 1.09 206.08 1.09L206.08 1.09L206.08 1.09Q204.10 1.09 204.10 0.26L204.10 0.26L204.42-1.73L204.42-1.73Q205.31-7.30 205.31-16.26L205.31-16.26L205.31-16.26Q205.31-25.22 204.67-28.42L204.67-28.42L204.67-28.42Q204.67-29.18 206.02-29.18L206.02-29.18L206.02-29.18Q209.47-29.18 210.62-26.82L210.62-26.82L210.62-26.82Q210.69-26.56 210.85-26.56L210.85-26.56L210.85-26.56Q211.01-26.56 211.71-27.14L211.71-27.14L211.71-27.14Q213.82-28.86 216.70-28.86L216.70-28.86L216.70-28.86Q218.50-28.86 220.29-28.16L220.29-28.16L220.29-28.16Q223.94-26.69 223.94-22.02L223.94-22.02Z"></path></g></g><style>text {
  font-size: 100px;
  font-family: Arial Black;
  dominant-baseline: central;
  text-anchor: middle;
}</style></svg>