<svg version="1.1" id="Layer_1" xmlns="http://www.w3.org/2000/svg" xmlns:xlink="http://www.w3.org/1999/xlink" x="0px" y="0px"
	 width="100%" viewBox="0 0 231 219" enable-background="new 0 0 231 219" xml:space="preserve">
<path fill="#000000" opacity="1.000000" stroke="none" 
	d="
M164.000000,220.000000 
	C109.333336,220.000000 55.166672,220.000000 1.000007,220.000000 
	C1.000005,147.000000 1.000005,74.000015 1.000002,1.000017 
	C77.999992,1.000011 154.999985,1.000011 231.999969,1.000006 
	C231.999985,73.999985 231.999985,146.999969 232.000000,219.999969 
	C209.500000,220.000000 187.000000,220.000000 164.000000,220.000000 
M74.500000,40.004444 
	C59.766357,40.004444 45.032715,40.004444 30.005085,40.004444 
	C30.005085,42.421585 30.005085,43.909607 30.005083,45.397629 
	C30.005043,90.869125 30.070690,136.340851 29.908525,181.811768 
	C29.891346,186.628952 31.323263,188.046982 36.127609,188.033478 
	C89.093994,187.884735 142.061157,187.875626 195.027390,188.046616 
	C199.949936,188.062500 201.111115,186.530136 201.094009,181.817017 
	C200.929596,136.512680 200.918884,91.207191 201.105698,45.903023 
	C201.125961,40.989376 199.641846,39.876423 194.924652,39.898464 
	C155.117126,40.084469 115.308380,40.004490 74.500000,40.004444 
z"/>
<path fill="#283891" opacity="1.000000" stroke="none" 
	d="
M75.000000,40.004448 
	C115.308380,40.004490 155.117126,40.084469 194.924652,39.898464 
	C199.641846,39.876423 201.125961,40.989376 201.105698,45.903023 
	C200.918884,91.207191 200.929596,136.512680 201.094009,181.817017 
	C201.111115,186.530136 199.949936,188.062500 195.027390,188.046616 
	C142.061157,187.875626 89.093994,187.884735 36.127609,188.033478 
	C31.323263,188.046982 29.891346,186.628952 29.908525,181.811768 
	C30.070690,136.340851 30.005043,90.869125 30.005083,45.397629 
	C30.005085,43.909607 30.005085,42.421585 30.005085,40.004444 
	C45.032715,40.004444 59.766357,40.004444 75.000000,40.004448 
M144.919861,151.929153 
	C155.890320,152.173767 161.826050,157.509888 161.854477,169.552307 
	C163.185013,158.518417 167.941528,151.748413 179.529922,151.492661 
	C177.376083,150.421326 175.531357,149.813751 173.640717,149.436279 
	C168.344894,148.378998 165.054306,145.380478 164.032242,139.985550 
	C163.662384,138.033279 163.123291,136.113083 162.394989,133.230713 
	C162.394989,120.825058 162.394989,108.419403 162.394989,96.013741 
	C162.039429,96.012817 161.683868,96.011887 161.328308,96.010963 
	C161.328308,108.736176 161.328308,121.461395 161.056427,134.953613 
	C160.278015,145.446976 157.098877,148.886642 147.175568,149.991943 
	C146.197693,150.100861 145.227112,150.275253 143.377777,150.260406 
	C123.860809,150.258850 104.343849,150.257309 84.026100,150.128265 
	C72.972054,148.892365 71.056015,147.074997 68.838882,136.069565 
	C68.599861,134.883102 67.707024,133.828339 67.700455,131.805466 
	C67.700455,119.859238 67.700455,107.913002 67.700455,95.966774 
	C67.500221,95.966591 67.299980,95.966408 67.099747,95.966225 
	C67.099747,108.212021 67.099747,120.457817 67.058846,133.439774 
	C65.471466,137.869461 65.014267,143.463287 61.983200,146.405884 
	C58.866875,149.431244 53.238537,149.869049 47.084881,152.002380 
	C60.302532,151.395370 66.988632,156.748276 67.863960,169.426926 
	C68.274872,157.590424 74.155823,152.260620 85.825813,151.984314 
	C105.255150,151.938522 124.684494,151.892731 144.919861,151.929153 
M85.841614,75.617851 
	C104.588348,75.667213 123.335083,75.716576 142.903198,75.910934 
	C144.708206,76.188271 146.530945,76.381310 148.315247,76.757004 
	C157.904526,78.776085 159.777374,80.834435 161.038513,90.556160 
	C161.083817,90.905403 161.293518,91.233315 161.426605,91.571167 
	C161.959610,92.045502 162.492599,92.519836 163.025604,92.994171 
	C162.923950,80.232750 170.473404,76.410858 180.783859,75.961273 
	C175.895020,74.048904 170.517807,73.339584 167.364594,70.313141 
	C164.317444,67.388481 163.561981,62.076134 161.685318,57.535480 
	C158.664062,72.339111 158.337524,72.641182 143.064850,75.065399 
	C142.735840,75.117622 142.409241,75.184898 141.151291,75.050682 
	C122.390274,75.122467 103.629257,75.194244 84.290810,74.777458 
	C73.842659,74.384079 68.955925,68.194008 67.370026,57.974731 
	C67.077881,70.750595 59.332970,74.723320 48.187828,75.459457 
	C59.777637,75.933952 67.053368,80.678192 66.999542,94.522270 
	C68.235909,92.279648 68.644081,91.878174 68.658821,91.462738 
	C68.988708,82.163651 73.728920,77.092506 83.032539,76.299149 
	C83.662216,76.245453 84.264664,75.872437 85.841614,75.617851 
M92.560219,117.736465 
	C92.732040,117.559464 92.875412,117.361824 93.899193,116.911812 
	C98.161575,116.911812 102.423958,116.911812 107.047020,116.911812 
	C107.047020,121.044762 107.044312,124.668068 107.047600,128.291382 
	C107.053589,134.896301 107.757835,135.378418 115.255043,133.445084 
	C115.255043,121.165062 115.343147,108.746674 115.064804,96.336502 
	C115.045403,95.471786 112.391090,94.266754 110.811615,93.933868 
	C108.660995,93.480606 106.927223,94.196404 107.017441,97.069641 
	C107.150658,101.312363 107.051857,105.562378 107.051857,109.799049 
	C101.910873,109.799049 97.449562,109.799049 92.792465,109.506256 
	C92.647896,109.318733 92.478767,109.156868 92.123871,108.096687 
	C92.114174,104.608299 91.918434,101.107574 92.148537,97.635078 
	C92.366699,94.342697 90.729759,93.790283 87.960320,93.774483 
	C85.100555,93.758186 83.769951,94.529793 83.841858,97.722389 
	C84.028839,106.024101 83.903839,114.332840 83.903458,122.638771 
	C83.903282,126.385262 83.903427,130.131744 83.903427,134.348145 
	C87.075737,134.195068 89.448517,134.080566 92.285072,133.943680 
	C92.285072,128.231735 92.285072,123.105705 92.560219,117.736465 
M126.620003,96.033699 
	C120.019012,103.124611 121.288963,111.220299 129.763062,115.747597 
	C131.811584,116.842026 134.288193,117.359612 135.986420,118.819107 
	C137.538071,120.152634 139.565475,122.853767 139.106247,124.137848 
	C138.479523,125.890228 135.672409,127.985886 133.838898,127.950020 
	C130.011597,127.875145 126.209740,126.499748 122.399902,125.659164 
	C121.245888,131.871643 121.614571,132.969879 127.788864,134.086243 
	C131.570587,134.770020 135.712967,134.636810 139.491211,133.871933 
	C144.520447,132.853821 147.352768,129.102753 148.032425,123.991203 
	C148.718857,118.828712 146.729706,114.841820 142.178909,112.305855 
	C139.426712,110.772179 136.264862,109.845604 133.802368,107.969772 
	C132.401047,106.902306 131.235062,104.353302 131.482101,102.698166 
	C131.652786,101.554489 134.454865,99.979698 136.021378,100.044334 
	C139.030899,100.168510 141.998062,101.320137 145.284821,102.118980 
	C146.728714,97.940468 145.837372,95.197998 141.197311,93.944023 
	C136.264801,92.611000 131.653595,93.052139 126.620003,96.033699 
z"/>
<path fill="#FDFDFE" opacity="1.000000" stroke="none" 
	d="
M92.988251,109.799049 
	C97.449562,109.799049 101.910873,109.799049 107.051857,109.799049 
	C107.051857,105.562378 107.150658,101.312363 107.017441,97.069641 
	C106.927223,94.196404 108.660995,93.480606 110.811615,93.933868 
	C112.391090,94.266754 115.045403,95.471786 115.064804,96.336502 
	C115.343147,108.746674 115.255043,121.165062 115.255043,133.445084 
	C107.757835,135.378418 107.053589,134.896301 107.047600,128.291382 
	C107.044312,124.668068 107.047020,121.044762 107.047020,116.911812 
	C102.423958,116.911812 98.161575,116.911812 93.195641,117.006180 
	C92.423080,117.393600 92.354080,117.686638 92.285072,117.979683 
	C92.285072,123.105705 92.285072,128.231735 92.285072,133.943680 
	C89.448517,134.080566 87.075737,134.195068 83.903427,134.348145 
	C83.903427,130.131744 83.903282,126.385262 83.903458,122.638771 
	C83.903839,114.332840 84.028839,106.024101 83.841858,97.722389 
	C83.769951,94.529793 85.100555,93.758186 87.960320,93.774483 
	C90.729759,93.790283 92.366699,94.342697 92.148537,97.635078 
	C91.918434,101.107574 92.114174,104.608299 92.151215,108.795082 
	C92.178558,109.493477 92.506332,109.850479 92.506332,109.850479 
	C92.506332,109.850479 92.988251,109.799049 92.988251,109.799049 
z"/>
<path fill="#F5F6FA" opacity="1.000000" stroke="none" 
	d="
M126.927856,95.816025 
	C131.653595,93.052139 136.264801,92.611000 141.197311,93.944023 
	C145.837372,95.197998 146.728714,97.940468 145.284821,102.118980 
	C141.998062,101.320137 139.030899,100.168510 136.021378,100.044334 
	C134.454865,99.979698 131.652786,101.554489 131.482101,102.698166 
	C131.235062,104.353302 132.401047,106.902306 133.802368,107.969772 
	C136.264862,109.845604 139.426712,110.772179 142.178909,112.305855 
	C146.729706,114.841820 148.718857,118.828712 148.032425,123.991203 
	C147.352768,129.102753 144.520447,132.853821 139.491211,133.871933 
	C135.712967,134.636810 131.570587,134.770020 127.788864,134.086243 
	C121.614571,132.969879 121.245888,131.871643 122.399902,125.659164 
	C126.209740,126.499748 130.011597,127.875145 133.838898,127.950020 
	C135.672409,127.985886 138.479523,125.890228 139.106247,124.137848 
	C139.565475,122.853767 137.538071,120.152634 135.986420,118.819107 
	C134.288193,117.359612 131.811584,116.842026 129.763062,115.747597 
	C121.288963,111.220299 120.019012,103.124611 126.927856,95.816025 
z"/>
<path fill="#F5F5F9" opacity="1.000000" stroke="none" 
	d="
M142.081512,75.245163 
	C142.409241,75.184898 142.735840,75.117622 143.064850,75.065399 
	C158.337524,72.641182 158.664062,72.339111 161.685318,57.535480 
	C163.561981,62.076134 164.317444,67.388481 167.364594,70.313141 
	C170.517807,73.339584 175.895020,74.048904 180.783859,75.961273 
	C170.473404,76.410858 162.923950,80.232750 163.025604,92.994171 
	C162.492599,92.519836 161.959610,92.045502 161.426605,91.571167 
	C161.293518,91.233315 161.083817,90.905403 161.038513,90.556160 
	C159.777374,80.834435 157.904526,78.776085 148.315247,76.757004 
	C146.530945,76.381310 144.708206,76.188271 142.523148,75.708221 
	C142.143097,75.505516 142.081512,75.245163 142.081512,75.245163 
z"/>
<path fill="#F4F5F9" opacity="1.000000" stroke="none" 
	d="
M67.117477,132.712494 
	C67.707024,133.828339 68.599861,134.883102 68.838882,136.069565 
	C71.056015,147.074997 72.972054,148.892365 84.404663,150.455856 
	C84.816559,151.134720 84.849907,151.485992 84.883247,151.837265 
	C74.155823,152.260620 68.274872,157.590424 67.863960,169.426926 
	C66.988632,156.748276 60.302532,151.395370 47.084881,152.002380 
	C53.238537,149.869049 58.866875,149.431244 61.983200,146.405884 
	C65.014267,143.463287 65.471466,137.869461 67.096085,133.030334 
	C67.133331,132.620880 67.117477,132.712494 67.117477,132.712494 
z"/>
<path fill="#F6F6FA" opacity="1.000000" stroke="none" 
	d="
M84.879768,75.647934 
	C84.264664,75.872437 83.662216,76.245453 83.032539,76.299149 
	C73.728920,77.092506 68.988708,82.163651 68.658821,91.462738 
	C68.644081,91.878174 68.235909,92.279648 66.999542,94.522270 
	C67.053368,80.678192 59.777637,75.933952 48.187828,75.459457 
	C59.332970,74.723320 67.077881,70.750595 67.370026,57.974731 
	C68.955925,68.194008 73.842659,74.384079 84.536026,75.118622 
	C84.781242,75.459785 84.879768,75.647934 84.879768,75.647934 
z"/>
<path fill="#F6F7FA" opacity="1.000000" stroke="none" 
	d="
M162.661438,134.178253 
	C163.123291,136.113083 163.662384,138.033279 164.032242,139.985550 
	C165.054306,145.380478 168.344894,148.378998 173.640717,149.436279 
	C175.531357,149.813751 177.376083,150.421326 179.529922,151.492661 
	C167.941528,151.748413 163.185013,158.518417 161.854477,169.552307 
	C161.826050,157.509888 155.890320,152.173767 144.558899,151.649017 
	C144.349014,151.060074 144.367401,150.743530 144.253143,150.419250 
	C145.227112,150.275253 146.197693,150.100861 147.175568,149.991943 
	C157.098877,148.886642 160.278015,145.446976 161.412628,134.624741 
	C162.076401,134.332809 162.373932,134.293610 162.661438,134.178253 
z"/>
<path fill="#979EC9" opacity="1.000000" stroke="none" 
	d="
M143.815460,150.339844 
	C144.367401,150.743530 144.349014,151.060074 144.155884,151.607910 
	C124.684494,151.892731 105.255150,151.938522 85.354530,151.910797 
	C84.849907,151.485992 84.816559,151.134720 84.805054,150.519592 
	C104.343849,150.257309 123.860809,150.258850 143.815460,150.339844 
z"/>
<path fill="#C0C3DD" opacity="1.000000" stroke="none" 
	d="
M85.360687,75.632889 
	C84.879768,75.647934 84.781242,75.459785 84.824738,75.362907 
	C103.629257,75.194244 122.390274,75.122467 141.616394,75.147919 
	C142.081512,75.245163 142.143097,75.505516 142.112457,75.635727 
	C123.335083,75.716576 104.588348,75.667213 85.360687,75.632889 
z"/>
<path fill="#A6ACD1" opacity="1.000000" stroke="none" 
	d="
M162.528214,133.704483 
	C162.373932,134.293610 162.076401,134.332809 161.548553,134.241241 
	C161.328308,121.461395 161.328308,108.736176 161.328308,96.010963 
	C161.683868,96.011887 162.039429,96.012817 162.394989,96.013741 
	C162.394989,108.419403 162.394989,120.825058 162.528214,133.704483 
z"/>
<path fill="#AAAED2" opacity="1.000000" stroke="none" 
	d="
M67.408966,132.258972 
	C67.117477,132.712494 67.133331,132.620880 67.116539,132.662247 
	C67.099747,120.457817 67.099747,108.212021 67.099747,95.966225 
	C67.299980,95.966408 67.500221,95.966591 67.700455,95.966774 
	C67.700455,107.913002 67.700455,119.859238 67.408966,132.258972 
z"/>
<path fill="#2C3B93" opacity="1.000000" stroke="none" 
	d="
M92.890358,109.652649 
	C92.988251,109.799049 92.506332,109.850479 92.506332,109.850479 
	C92.506332,109.850479 92.178558,109.493477 92.231812,109.257080 
	C92.478767,109.156868 92.647896,109.318733 92.890358,109.652649 
z"/>
<path fill="#2C3B93" opacity="1.000000" stroke="none" 
	d="
M92.422646,117.858078 
	C92.354080,117.686638 92.423080,117.393600 92.741211,117.122047 
	C92.875412,117.361824 92.732040,117.559464 92.422646,117.858078 
z"/>
</svg>